<svg width="10" height="10" viewBox="0 0 10 10" fill="none" xmlns="http://www.w3.org/2000/svg">
<g clip-path="url(#clip0_285_17951)">
<path d="M5.00011 4.72257C5.41007 4.72312 5.81099 4.60205 6.15213 4.37469C6.49327 4.14732 6.7593 3.82388 6.91657 3.44528C7.07384 3.06668 7.11527 2.64994 7.03563 2.24778C6.95599 1.84563 6.75885 1.47613 6.46915 1.18605C6.17946 0.895965 5.81023 0.698329 5.40818 0.618147C5.00613 0.537964 4.58934 0.578839 4.21052 0.735598C3.83171 0.892358 3.50791 1.15796 3.28009 1.49879C3.05227 1.83963 2.93066 2.24038 2.93066 2.65035C2.93066 3.19945 3.1486 3.72611 3.53662 4.11465C3.92464 4.50318 4.451 4.72183 5.00011 4.72257ZM5.00011 1.1309C5.30031 1.13035 5.59393 1.21891 5.84377 1.38535C6.09361 1.55179 6.28843 1.78863 6.40357 2.06588C6.51871 2.34313 6.54898 2.64831 6.49054 2.94277C6.43211 3.23724 6.28761 3.50773 6.07533 3.72001C5.86305 3.93229 5.59255 4.07679 5.29809 4.13523C5.00363 4.19366 4.69845 4.16339 4.4212 4.04825C4.14395 3.93311 3.90711 3.73829 3.74067 3.48845C3.57422 3.23861 3.48567 2.94499 3.48622 2.64479C3.48695 2.24351 3.64669 1.85887 3.93044 1.57512C4.21419 1.29137 4.59883 1.13164 5.00011 1.1309Z" fill="#333333"/>
<path d="M1.66706 8.85847V7.15847C2.09591 6.70838 2.61374 6.35246 3.18761 6.11335C3.76148 5.87424 4.37882 5.75717 5.00039 5.76959C5.85112 5.75813 6.68845 5.98212 7.41984 6.41681L7.79484 5.99736C6.95866 5.47069 5.98856 5.19586 5.00039 5.2057C4.27739 5.18728 3.55923 5.32859 2.89711 5.61956C2.23499 5.91052 1.64522 6.34398 1.16984 6.88903C1.13278 6.93676 1.1123 6.99528 1.1115 7.0557V8.85847C1.10777 9.00978 1.16413 9.1564 1.26825 9.26625C1.37237 9.3761 1.51577 9.44022 1.66706 9.44459H5.10872L4.58095 8.88903L1.66706 8.85847Z" fill="#333333"/>
<path d="M8.33398 8.8579V8.88845H7.45898L6.95898 9.44401H8.33398C8.48332 9.43966 8.62504 9.37708 8.72885 9.26964C8.83266 9.16219 8.89033 9.01841 8.88954 8.86901V7.27734L8.33398 7.89679V8.8579Z" fill="#333333"/>
<path d="M9.65578 5.17186C9.60085 5.12296 9.52878 5.09784 9.45535 5.10201C9.38193 5.10617 9.31316 5.13928 9.26411 5.19408L6.03634 8.80519L4.59189 7.25241C4.56818 7.22469 4.53924 7.2019 4.50673 7.18536C4.47421 7.16882 4.43876 7.15885 4.40239 7.15601C4.36602 7.15317 4.32945 7.15753 4.29476 7.16883C4.26007 7.18012 4.22795 7.19814 4.20023 7.22186C4.17307 7.24656 4.15108 7.2764 4.13553 7.30966C4.11998 7.34292 4.11117 7.37892 4.10962 7.4156C4.10807 7.45228 4.11381 7.4889 4.1265 7.52335C4.13919 7.5578 4.15858 7.58939 4.18356 7.6163L6.04189 9.6163L9.678 5.55519C9.72437 5.50072 9.74793 5.43047 9.74379 5.35907C9.73965 5.28766 9.70813 5.2206 9.65578 5.17186Z" fill="#333333"/>
</g>
<defs>
<clipPath id="clip0_285_17951">
<rect width="10" height="10" fill="white"/>
</clipPath>
</defs>
</svg>
