<svg viewBox="0 0 14 14" fill="none" xmlns="http://www.w3.org/2000/svg">
<g clip-path="url(#clip0_285_19186)">
<path d="M6.9974 9.33464C8.28606 9.33464 9.33073 8.28997 9.33073 7.0013C9.33073 5.71264 8.28606 4.66797 6.9974 4.66797C5.70873 4.66797 4.66406 5.71264 4.66406 7.0013C4.66406 8.28997 5.70873 9.33464 6.9974 9.33464Z" stroke="#333333" stroke-width="0.8" stroke-linecap="round" stroke-linejoin="round"/>
<path d="M9.33074 4.66761V7.58427C9.33074 8.0484 9.51511 8.49352 9.8433 8.82171C10.1715 9.1499 10.6166 9.33427 11.0807 9.33427C11.5449 9.33427 11.99 9.1499 12.3182 8.82171C12.6464 8.49352 12.8307 8.0484 12.8307 7.58427V7.00094C12.8307 5.68437 12.3852 4.40655 11.5668 3.37525C10.7484 2.34395 9.60522 1.61982 8.32311 1.32061C7.04099 1.02141 5.69536 1.16471 4.50502 1.72724C3.31468 2.28976 2.34963 3.23841 1.7668 4.41895C1.18397 5.59948 1.01763 6.94245 1.29483 8.22951C1.57203 9.51656 2.27647 10.672 3.2936 11.5079C4.31073 12.3439 5.58074 12.8111 6.89711 12.8338C8.21348 12.8564 9.4988 12.4331 10.5441 11.6326" stroke="#333333" stroke-width="0.8" stroke-linecap="round" stroke-linejoin="round"/>
</g>
<defs>
<clipPath id="clip0_285_19186">
<rect width="14" height="14" fill="white"/>
</clipPath>
</defs>
</svg>
