<svg width="20" height="20" viewBox="0 0 20 20" fill="none" xmlns="http://www.w3.org/2000/svg">
<path d="M17.2734 4.0909H14.0916C13.8189 4.0909 13.6371 3.90906 13.6371 3.63637V2.27273C13.6371 2 13.4552 1.8182 13.1825 1.8182C12.9098 1.8182 12.728 2.00004 12.728 2.27273V3.63637C12.728 4.4091 13.3189 5 14.0916 5H16.8189V18.6364C16.8189 18.9091 16.6371 19.0909 16.3644 19.0909H3.63707C3.36434 19.0909 3.18254 18.9091 3.18254 18.6364V1.36363C3.18254 1.0909 3.36438 0.909102 3.63707 0.909102H13.0007L15.5916 3.5C15.7734 3.68184 16.0461 3.68184 16.228 3.5C16.4098 3.31816 16.4098 3.04547 16.228 2.86363L13.5007 0.136367C13.4098 0.0454688 13.3189 0 13.1825 0H3.63707C2.86434 0 2.27344 0.590898 2.27344 1.36363V18.6364C2.27344 19.4091 2.86434 20 3.63707 20H16.3643C17.1371 20 17.728 19.4091 17.728 18.6364V4.54547C17.728 4.27273 17.5462 4.0909 17.2734 4.0909Z" fill="#333333"/>
<path d="M15.0009 10.4546H9.54633C9.27359 10.4546 9.0918 10.6364 9.0918 10.9091C9.0918 11.1819 9.27363 11.3637 9.54633 11.3637H15.0009C15.2736 11.3637 15.4554 11.1818 15.4554 10.9091C15.4554 10.6364 15.2736 10.4546 15.0009 10.4546Z" fill="#333333"/>
<path d="M12.2736 12.2729H9.54633C9.27359 12.2729 9.0918 12.4548 9.0918 12.7275C9.0918 13.0002 9.27363 13.182 9.54633 13.182H12.2736C12.5463 13.182 12.7281 13.0002 12.7281 12.7275C12.7281 12.4548 12.5463 12.2729 12.2736 12.2729Z" fill="#333333"/>
<path d="M14.0918 6.36377H9.54633C9.27359 6.36377 9.0918 6.54561 9.0918 6.8183C9.0918 7.091 9.27363 7.27283 9.54633 7.27283H14.0918C14.3645 7.27283 14.5463 7.091 14.5463 6.8183C14.5463 6.54561 14.3645 6.36377 14.0918 6.36377Z" fill="#333333"/>
<path d="M10.91 8.18164H9.54633C9.27359 8.18164 9.0918 8.36348 9.0918 8.63617C9.0918 8.90891 9.27363 9.0907 9.54633 9.0907H10.91C11.1827 9.0907 11.3645 8.90887 11.3645 8.63617C11.3645 8.36344 11.1827 8.18164 10.91 8.18164Z" fill="#333333"/>
<path d="M13.6372 14.5454H9.54633C9.27359 14.5454 9.0918 14.7272 9.0918 14.9999C9.0918 15.2726 9.27363 15.4545 9.54633 15.4545H13.6372C13.91 15.4545 14.0918 15.2726 14.0918 14.9999C14.0918 14.7272 13.91 14.5454 13.6372 14.5454Z" fill="#333333"/>
<path d="M11.8191 16.3638H9.54633C9.27359 16.3638 9.0918 16.5456 9.0918 16.8183C9.0918 17.091 9.27363 17.2728 9.54633 17.2728H11.8191C12.0918 17.2728 12.2736 17.091 12.2736 16.8183C12.2736 16.5456 12.0918 16.3638 11.8191 16.3638Z" fill="#333333"/>
<path d="M7.2727 10.4546H5.45453C5.1818 10.4546 5 10.6364 5 10.9091V12.7273C5 13 5.18184 13.1818 5.45453 13.1818H7.2727C7.54543 13.1818 7.72723 13 7.72723 12.7273V10.9091C7.72723 10.6364 7.54543 10.4546 7.2727 10.4546ZM6.81812 12.2728H5.90902V11.3637H6.81812V12.2728Z" fill="#333333"/>
<path d="M7.2727 6.36377H5.45453C5.1818 6.36377 5 6.54561 5 6.8183V8.63646C5 8.9092 5.18184 9.091 5.45453 9.091H7.2727C7.54543 9.091 7.72723 8.90916 7.72723 8.63646V6.8183C7.72723 6.54561 7.54543 6.36377 7.2727 6.36377ZM6.81812 8.18197H5.90902V7.27287H6.81812V8.18197Z" fill="#333333"/>
<path d="M7.2727 14.5454H5.45453C5.1818 14.5454 5 14.7272 5 14.9999V16.8181C5 17.0908 5.18184 17.2726 5.45453 17.2726H7.2727C7.54543 17.2726 7.72723 17.0908 7.72723 16.8181V14.9999C7.72723 14.7272 7.54543 14.5454 7.2727 14.5454ZM6.81812 16.3636H5.90902V15.4545H6.81812V16.3636Z" fill="#333333"/>
</svg>
