<svg width="10" height="11" viewBox="0 0 10 11" fill="none" xmlns="http://www.w3.org/2000/svg">
<path d="M7.08203 1.75045C7.19147 1.64102 7.32138 1.55421 7.46437 1.49498C7.60735 1.43576 7.7606 1.40527 7.91536 1.40527C8.07013 1.40527 8.22338 1.43576 8.36636 1.49498C8.50935 1.55421 8.63926 1.64102 8.7487 1.75045C8.85813 1.85989 8.94494 1.9898 9.00417 2.13279C9.06339 2.27577 9.09388 2.42902 9.09388 2.58378C9.09388 2.73855 9.06339 2.8918 9.00417 3.03478C8.94494 3.17777 8.85813 3.30768 8.7487 3.41712L3.1237 9.04212L0.832031 9.66712L1.45703 7.37545L7.08203 1.75045Z" stroke="#585563" stroke-linecap="round" stroke-linejoin="round"/>
</svg>
