<svg width="16" height="16" viewBox="0 0 16 16" fill="none" xmlns="http://www.w3.org/2000/svg">
<path fill-rule="evenodd" clip-rule="evenodd" d="M7.54085 1.18391C7.79839 0.9387 8.20292 0.9387 8.46045 1.18391L13.7938 6.26327L15.4605 7.8506C15.7271 8.10447 15.7373 8.52647 15.4834 8.79313C15.2295 9.05973 14.8075 9.07 14.5409 8.81607L14.0007 8.3016V13.3333C14.0007 14.0697 13.4037 14.6667 12.6673 14.6667H9.33399H6.66732H3.33399C2.59761 14.6667 2.00065 14.0697 2.00065 13.3333V8.3016L1.46043 8.81607C1.1938 9.07 0.771819 9.05973 0.517894 8.79313C0.26397 8.52647 0.274262 8.10447 0.540882 7.8506L2.20755 6.26327L7.54085 1.18391ZM3.33399 7.03173V13.3333H6.00065V10C6.00065 8.8954 6.89605 8 8.00065 8C9.10525 8 10.0007 8.8954 10.0007 10V13.3333H12.6673V7.03173L8.00065 2.5873L3.33399 7.03173ZM8.66732 13.3333V10C8.66732 9.6318 8.36885 9.33333 8.00065 9.33333C7.63245 9.33333 7.33399 9.6318 7.33399 10V13.3333H8.66732Z" fill="#333333"/>
</svg>
