<svg xmlns="http://www.w3.org/2000/svg" style="display:none;">

  <!-- teams icon -->
  <symbol id="teams" width="16" height="16" viewBox="0 0 16 16">
    <g clip-path="url(#clip0_352_1939)">
      <path d="M10.6016 7.94722C9.11814 7.9472 7.74898 8.35423 6.73225 9.1695C5.71552 9.98478 5.07615 11.2232 5.07617 12.7441V12.7453V12.7466C5.07632 12.7692 5.07864 14.1103 5.07864 14.1103L5.07617 15.9341H15.9822L15.9913 14.1103C15.9913 14.1103 15.9932 13.4513 15.9938 13.1983C15.9944 12.9454 15.9968 12.7352 15.9962 12.7538V12.7488V12.7439C15.9962 11.0707 15.2258 9.82275 14.17 9.05068C13.1141 8.27862 11.7948 7.94704 10.6026 7.94703L10.6016 7.94722ZM10.6016 8.86753C11.6186 8.86753 12.7668 9.16632 13.625 9.79383C14.4831 10.4213 15.075 11.3426 15.075 12.7441C15.0737 12.8105 15.0731 12.9468 15.0725 13.1947C15.0719 13.4478 15.0713 13.7782 15.0701 14.1078C15.0688 14.4356 15.067 14.7619 15.0651 15.0137H6.00225C6.00102 14.762 5.99916 14.4352 5.99854 14.1078C5.9967 13.4504 5.99672 12.8161 5.99611 12.7441C5.99608 11.4723 6.4904 10.5421 7.30707 9.8873C8.12373 9.23245 9.28743 8.86751 10.6016 8.86753Z" fill="#333333"/>
      <path d="M10.6013 0.0802307C8.66348 0.0802307 7.08301 1.65803 7.08301 3.59371C7.08301 5.52938 8.66348 7.10838 10.6013 7.10838C12.5391 7.10838 14.1207 5.52938 14.1207 3.59371C14.1207 1.65803 12.5391 0.0802307 10.6013 0.0802307ZM10.6013 1.00054C12.0426 1.00054 13.2004 2.15629 13.2004 3.59371C13.2004 5.03113 12.0426 6.18807 10.6013 6.18807C9.15997 6.18807 8.00332 5.03113 8.00332 3.59371C8.00332 2.15629 9.15997 1.00054 10.6013 1.00054Z" fill="#333333"/>
      <path d="M4.83048 8.31269C3.44774 8.31265 2.23968 8.69671 1.37332 9.47147C0.506967 10.2462 0.0154471 11.4019 0.015625 12.8028V12.804V12.8053C0.0157478 12.8297 0.0180966 14.139 0.0180966 14.139L0.0273461 15.9341H3.79415H4.3046V15.0138H3.79415H0.940953C0.939726 14.7685 0.939133 14.4548 0.938519 14.1378C0.937292 13.4917 0.936661 12.8614 0.936047 12.8005C0.936483 11.6091 1.32542 10.7498 1.98697 10.1582C2.64855 9.56655 3.61649 9.23352 4.82819 9.23308C4.96512 9.2343 5.37096 9.27404 5.37096 9.27404C5.37096 9.27404 5.83934 8.7149 6.05168 8.44454L5.59751 8.37384C5.34477 8.33451 5.08889 8.3142 4.83299 8.31273H4.83175L4.83048 8.31269Z" fill="#333333"/>
      <path d="M4.78414 1.26738C3.03617 1.25511 1.59774 2.66958 1.58601 4.41537C1.57411 6.16116 2.99329 7.59495 4.74126 7.60635C5.49745 7.61064 6.22692 7.34481 6.80144 6.86294C6.87125 6.80447 6.93811 6.7431 7.00283 6.67855L7.2365 6.44375L6.67869 5.70211L6.43194 5.95791C6.38673 6.00478 6.25991 6.11661 6.21063 6.15792C5.80266 6.50011 5.2836 6.6893 4.74628 6.68608C3.49469 6.67792 2.49782 5.66882 2.50632 4.42159C2.51473 3.17435 3.52514 2.17888 4.77673 2.18766C5.15831 2.19011 5.53387 2.28897 5.86645 2.47544L6.26759 2.70106C6.26759 2.70106 6.55532 1.94921 6.59582 1.83303L6.31649 1.6732C5.84832 1.41069 5.32103 1.27124 4.78414 1.26738Z" fill="#333333"/>
    </g>
    <defs>
      <clipPath id="clip0_352_1939">
        <rect width="16" height="16" fill="white"/>
      </clipPath>
    </defs>
  </symbol>

  <!-- home icon -->
  <!-- <symbol id="home" width="16" height="16" viewBox="0 0 16 16" fill="none">
    <path fill-rule="evenodd" clip-rule="evenodd" d="M7.54085 1.18391C7.79839 0.9387 8.20292 0.9387 8.46045 1.18391L13.7938 6.26327L15.4605 7.8506C15.7271 8.10447 15.7373 8.52647 15.4834 8.79313C15.2295 9.05973 14.8075 9.07 14.5409 8.81607L14.0007 8.3016V13.3333C14.0007 14.0697 13.4037 14.6667 12.6673 14.6667H9.33399H6.66732H3.33399C2.59761 14.6667 2.00065 14.0697 2.00065 13.3333V8.3016L1.46043 8.81607C1.1938 9.07 0.771819 9.05973 0.517894 8.79313C0.26397 8.52647 0.274262 8.10447 0.540882 7.8506L2.20755 6.26327L7.54085 1.18391ZM3.33399 7.03173V13.3333H6.00065V10C6.00065 8.8954 6.89605 8 8.00065 8C9.10525 8 10.0007 8.8954 10.0007 10V13.3333H12.6673V7.03173L8.00065 2.5873L3.33399 7.03173ZM8.66732 13.3333V10C8.66732 9.6318 8.36885 9.33333 8.00065 9.33333C7.63245 9.33333 7.33399 9.6318 7.33399 10V13.3333H8.66732Z" fill="#333333"/>
  </symbol> -->
 
<symbol id="home" width="16" height="16" viewBox="0 0 16 16" fill="none" xmlns="http://www.w3.org/2000/svg">
<path fill-rule="evenodd" clip-rule="evenodd" d="M8.34023 1.99688C8.14839 1.81875 7.85162 1.81875 7.65978 1.99688L3 6.32382V12.4986H6V7.99864V7.49864H6.5H9H9.5V7.99864V12.4986H12.5V5.85953L8.34023 1.99688ZM8.5 12.4986V8.49864H7V12.4986H8.5ZM1.34023 7.86504L2 7.25239V12.9986V13.4986H2.5H13H13.5V12.9986V6.7881L14.6598 7.86504C14.8621 8.05294 15.1785 8.04122 15.3664 7.83887C15.5543 7.63651 15.5426 7.32014 15.3402 7.13224L9.02068 1.26409C8.44516 0.729678 7.55485 0.729678 6.97933 1.26409L0.659777 7.13224C0.457421 7.32014 0.445704 7.63651 0.633605 7.83887C0.821507 8.04122 1.13787 8.05294 1.34023 7.86504Z" fill="black"/>
</symbol>


  <!-- course icon --> 
  <symbol id="course" width="16" height="16" viewBox="0 0 16 16" fill="none">
    <path  d="M12.6663 11.3333V3.33333C12.6663 2.59695 12.0694 2 11.333 2H5.33301C4.22844 2 3.33301 2.89543 3.33301 4V12.6667M12.6663 11.3333H4.66634C3.92996 11.3333 3.33301 11.9303 3.33301 12.6667M12.6663 11.3333V14H4.66634C3.92996 14 3.33301 13.4031 3.33301 12.6667M6.66634 5.33333H9.33301" 
    stroke="#333333" stroke-width="1.5" stroke-linecap="round" stroke-linejoin="round"/>
  </symbol>

  <!-- support icon -->

  <symbol id="support" width="16" height="16" viewBox="0 0 16 16" fill="none">
    <path fill-rule="evenodd" clip-rule="evenodd" d="M8 13C10.7614 13 13 10.7614 13 8C13 5.23857 10.7614 3 8 3C5.23857 3 3 5.23857 3 8C3 10.7614 5.23857 13 8 13ZM8 14C11.3137 14 14 11.3137 14 8C14 4.68629 11.3137 2 8 2C4.68629 2 2 4.68629 2 8C2 11.3137 4.68629 14 8 14ZM8.5 10V11H7.5V10H8.5ZM7 6.95453C7 6.44175 7.43313 6 8 6C8.56687 6 9 6.44175 9 6.95453C9 7.15933 8.87673 7.40207 8.60507 7.67727C8.34173 7.94407 8.00693 8.17287 7.72853 8.3528L7.5 8.5006V9.5H8.5V9.04153C8.75413 8.86867 9.0552 8.64473 9.3168 8.37973C9.65453 8.0376 10 7.55307 10 6.95453C10 5.86069 9.08993 5 8 5C6.91007 5 6 5.86069 6 6.95453H7Z" fill="#333333"/>
  </symbol>

</svg>
