<svg width="24" height="24" viewBox="0 0 24 24" fill="none" xmlns="http://www.w3.org/2000/svg">
<rect width="24" height="24" rx="2" fill="#EEF7F7"/>
<g clip-path="url(#clip0_4906_34496)">
<path d="M9.75 12.5C9.305 12.5 8.86998 12.3681 8.49996 12.1208C8.12996 11.8736 7.84157 11.5222 7.67127 11.1111C7.50097 10.6999 7.45641 10.2475 7.54323 9.81105C7.63005 9.3746 7.84434 8.97368 8.15901 8.65901C8.47368 8.34434 8.87459 8.13005 9.31105 8.04324C9.7475 7.95642 10.1999 8.00098 10.611 8.17127C11.0222 8.34157 11.3735 8.62996 11.6208 8.99997C11.868 9.37 12 9.805 12 10.25C11.9993 10.8466 11.762 11.4185 11.3402 11.8403C10.9184 12.2621 10.3465 12.4994 9.75 12.5ZM9.75 9C9.50275 9 9.2611 9.0733 9.05555 9.21065C8.84997 9.348 8.68976 9.54325 8.59515 9.77165C8.50054 10.0001 8.47579 10.2514 8.52402 10.4939C8.57225 10.7364 8.6913 10.9591 8.86611 11.1339C9.04095 11.3087 9.26365 11.4278 9.50615 11.476C9.7486 11.5242 9.99995 11.4995 10.2283 11.4049C10.4567 11.3103 10.652 11.15 10.7893 10.9445C10.9267 10.7389 11 10.4973 11 10.25C11 9.9185 10.8683 9.60055 10.6339 9.3661C10.3994 9.1317 10.0815 9 9.75 9ZM13.5 16C13.4992 15.3372 13.2355 14.7018 12.7669 14.2331C12.2982 13.7645 11.6628 13.5008 11 13.5H8.5C7.8372 13.5008 7.20178 13.7645 6.73311 14.2331C6.26444 14.7018 6.00079 15.3372 6 16V18H7V16C7 15.6022 7.15804 15.2207 7.43934 14.9394C7.72064 14.6581 8.10217 14.5 8.5 14.5H11C11.3978 14.5 11.7793 14.6581 12.0606 14.9394C12.3419 15.2207 12.5 15.6022 12.5 16V18H13.5V16ZM14.75 10.5C14.305 10.5 13.87 10.3681 13.4999 10.1208C13.13 9.87355 12.8415 9.52215 12.6712 9.11105C12.5009 8.69991 12.4564 8.24751 12.5432 7.81105C12.63 7.37459 12.8443 6.97368 13.159 6.65901C13.4737 6.34435 13.8746 6.13005 14.311 6.04324C14.7475 5.95642 15.1999 6.00098 15.611 6.17127C16.0221 6.34157 16.3735 6.62996 16.6208 6.99997C16.868 7.36998 17 7.805 17 8.25C16.9993 8.84654 16.762 9.41845 16.3402 9.84025C15.9184 10.2621 15.3465 10.4994 14.75 10.5ZM14.75 7C14.5027 7 14.2611 7.07331 14.0555 7.21067C13.85 7.34802 13.6897 7.54324 13.5951 7.77165C13.5005 8.00006 13.4758 8.25139 13.524 8.49387C13.5722 8.73634 13.6913 8.95907 13.8661 9.1339C14.0409 9.3087 14.2636 9.42775 14.5061 9.476C14.7486 9.5242 14.9999 9.49945 15.2283 9.40485C15.4567 9.31025 15.652 9.15 15.7893 8.94447C15.9267 8.7389 16 8.49723 16 8.25C16 7.91848 15.8683 7.60054 15.6339 7.36612C15.3994 7.1317 15.0815 7 14.75 7ZM18 14C17.9992 13.3372 17.7355 12.7018 17.2669 12.2331C16.7982 11.7645 16.1628 11.5008 15.5 11.5H13V12.5H15.5C15.8978 12.5 16.2793 12.6581 16.5606 12.9394C16.8419 13.2207 17 13.6022 17 14V16H18V14Z" fill="#005F6B"/>
</g>
<defs>
<clipPath id="clip0_4906_34496">
<rect width="16" height="16" fill="white" transform="translate(4 4)"/>
</clipPath>
</defs>
</svg>
