<svg viewBox="0 0 16 16" fill="none" xmlns="http://www.w3.org/2000/svg">
<g clip-path="url(#clip0_4906_34498)">
<path d="M5.75 8.5C5.305 8.5 4.86998 8.36805 4.49996 8.1208C4.12996 7.87355 3.84157 7.52215 3.67127 7.11105C3.50097 6.6999 3.45641 6.2475 3.54323 5.81105C3.63005 5.3746 3.84434 4.97368 4.15901 4.65901C4.47368 4.34434 4.87459 4.13005 5.31105 4.04324C5.7475 3.95642 6.1999 4.00098 6.61105 4.17127C7.02215 4.34157 7.37355 4.62996 7.6208 4.99997C7.86805 5.37 8 5.805 8 6.25C7.99935 6.84655 7.76205 7.41845 7.34025 7.84025C6.91845 8.26205 6.34655 8.49935 5.75 8.5ZM5.75 5C5.50275 5 5.2611 5.0733 5.05555 5.21065C4.84997 5.348 4.68976 5.54325 4.59515 5.77165C4.50054 6.00005 4.47579 6.2514 4.52402 6.49385C4.57225 6.73635 4.6913 6.95905 4.86611 7.1339C5.04095 7.3087 5.26365 7.42775 5.50615 7.476C5.7486 7.5242 5.99995 7.49945 6.22835 7.40485C6.45675 7.31025 6.652 7.15 6.78935 6.94445C6.9267 6.7389 7 6.49725 7 6.25C7 5.9185 6.8683 5.60055 6.6339 5.3661C6.39945 5.1317 6.0815 5 5.75 5ZM9.5 12C9.4992 11.3372 9.23555 10.7018 8.7669 10.2331C8.2982 9.76445 7.6628 9.5008 7 9.5H4.5C3.8372 9.5008 3.20178 9.76445 2.73311 10.2331C2.26444 10.7018 2.00079 11.3372 2 12V14H3V12C3 11.6022 3.15804 11.2207 3.43934 10.9394C3.72064 10.6581 4.10217 10.5 4.5 10.5H7C7.3978 10.5 7.77935 10.6581 8.06065 10.9394C8.34195 11.2207 8.5 11.6022 8.5 12V14H9.5V12ZM10.75 6.5C10.305 6.5 9.87 6.36805 9.49995 6.1208C9.12995 5.87355 8.84155 5.52215 8.67125 5.11105C8.50095 4.69991 8.4564 4.24751 8.54325 3.81105C8.63005 3.37459 8.84435 2.97368 9.159 2.65901C9.4737 2.34435 9.8746 2.13005 10.311 2.04324C10.7475 1.95642 11.1999 2.00098 11.611 2.17127C12.0221 2.34157 12.3735 2.62996 12.6208 2.99997C12.868 3.36998 13 3.805 13 4.25C12.9993 4.84654 12.762 5.41845 12.3402 5.84025C11.9184 6.26205 11.3465 6.49935 10.75 6.5ZM10.75 3C10.5027 3 10.2611 3.07331 10.0555 3.21067C9.85 3.34802 9.68975 3.54324 9.59515 3.77165C9.50055 4.00006 9.4758 4.25139 9.524 4.49387C9.57225 4.73634 9.6913 4.95907 9.8661 5.1339C10.0409 5.3087 10.2636 5.42775 10.5061 5.476C10.7486 5.5242 10.9999 5.49945 11.2283 5.40485C11.4567 5.31025 11.652 5.15 11.7893 4.94447C11.9267 4.7389 12 4.49723 12 4.25C12 3.91848 11.8683 3.60054 11.6339 3.36612C11.3994 3.1317 11.0815 3 10.75 3ZM14 10C13.9992 9.3372 13.7355 8.7018 13.2669 8.2331C12.7982 7.76445 12.1628 7.5008 11.5 7.5H9V8.5H11.5C11.8978 8.5 12.2793 8.65805 12.5606 8.93935C12.8419 9.22065 13 9.6022 13 10V12H14V10Z" fill="#005F6B"/>
</g>
<defs>
<clipPath id="clip0_4906_34498">
<rect width="16" height="16" fill="white"/>
</clipPath>
</defs>
</svg>
