<svg viewBox="0 0 14 14" fill="none" xmlns="http://www.w3.org/2000/svg">
  <g clip-path="url(#clip0_352_2955)">
    <path d="M7 4.03031C6.35827 3.21355 5.36903 2.39679 2.91736 2.33685C2.75633 2.33292 2.625 2.46372 2.625 2.6248C2.625 3.81975 2.625 8.34365 2.625 9.68159C2.625 9.84265 2.75634 9.96917 2.91733 9.97442C5.36903 10.0546 6.35827 11.1416 7 11.9583M7 4.03031C7.64172 3.21355 8.63094 2.39679 11.0826 2.33685C11.2437 2.33292 11.375 2.46078 11.375 2.62186C11.375 3.95761 11.375 8.3454 11.375 9.68118C11.375 9.84224 11.2437 9.96917 11.0827 9.97442C8.631 10.0546 7.64172 11.1416 7 11.9583M7 4.03031V11.9583" stroke="#005F6B" stroke-width="0.6" stroke-linejoin="round"/>
    <path d="M11.2199 3.5H12.541C12.7021 3.5 12.8327 3.63058 12.8327 3.79167V11.3977C12.8327 11.6338 12.5546 11.7906 12.3389 11.6947C11.8751 11.4886 11.1011 11.2369 10.0876 11.2369C8.37187 11.2369 6.99935 12.25 6.99935 12.25C6.99935 12.25 5.6268 11.2369 3.91111 11.2369C2.89761 11.2369 2.12359 11.4886 1.65979 11.6947C1.44408 11.7906 1.16602 11.6338 1.16602 11.3977V3.79167C1.16602 3.63058 1.2966 3.5 1.45768 3.5H2.77876" stroke="#005F6B" stroke-width="0.6" stroke-linejoin="round"/>
  </g>
  <defs>
    <clipPath id="clip0_352_2955">
      <rect width="14" height="14" fill="white"/>
    </clipPath>
  </defs>
</svg>
