<svg width="16" height="19" viewBox="0 0 16 19" fill="none" xmlns="http://www.w3.org/2000/svg">
<path d="M0.888889 8.09437H14.8889C15.3799 8.09437 15.7778 7.5667 15.7778 6.91566C15.7778 6.26461 15.3799 5.73694 14.8889 5.73694H0.888889C0.397926 5.73694 0 6.26461 0 6.91566C0 7.5667 0.397926 8.09437 0.888889 8.09437Z" fill="#005F6B"/>
<path d="M0.888889 13.375H14.8889C15.3799 13.375 15.7778 12.8473 15.7778 12.1963C15.7778 11.5453 15.3799 11.0176 14.8889 11.0176H0.888889C0.397926 11.0176 0 11.5453 0 12.1963C0 12.8473 0.397926 13.375 0.888889 13.375Z" fill="#005F6B"/>
<path d="M0.888889 18.6556H15.1111C15.6021 18.6556 16 18.128 16 17.4769C16 16.8259 15.6021 16.2982 15.1111 16.2982H0.888889C0.397926 16.2982 0 16.8259 0 17.4769C0 18.128 0.397926 18.6556 0.888889 18.6556Z" fill="#005F6B"/>
<path d="M15.1111 0.456253H0.888889C0.397926 0.456253 0 0.983926 0 1.63497C0 2.28602 0.397926 2.81369 0.888889 2.81369H15.1111C15.6021 2.81369 16 2.28602 16 1.63497C16 0.983926 15.6021 0.456253 15.1111 0.456253Z" fill="#005F6B"/>
</svg>
