<svg viewBox="0 0 16 16" fill="none" xmlns="http://www.w3.org/2000/svg">
<path d="M7.5201 6.63938C7.5201 6.90447 7.73502 7.11938 8.0001 7.11938C8.26519 7.11938 8.4801 6.90447 8.4801 6.63938H7.5201ZM8.4801 2.88002C8.4801 2.61493 8.26519 2.40002 8.0001 2.40002C7.73502 2.40002 7.5201 2.61493 7.5201 2.88002H8.4801ZM6.27903 4.58342C6.5203 4.47357 6.62679 4.18892 6.51697 3.94766C6.40708 3.7064 6.12244 3.59988 5.88118 3.70975L6.27903 4.58342ZM3.5201 8.10242L3.04004 8.09993L3.04014 8.10799L3.5201 8.10242ZM8.0001 12.48L8.00561 12C8.00196 12 7.99825 12 7.9946 12L8.0001 12.48ZM12.4801 8.10242L12.9602 8.10799L12.9601 8.09993L12.4801 8.10242ZM10.119 3.70975C9.87774 3.59988 9.59313 3.7064 9.48324 3.94766C9.37342 4.18892 9.47991 4.47357 9.72119 4.58342L10.119 3.70975ZM8.4801 6.63938V2.88002H7.5201V6.63938H8.4801ZM5.88118 3.70975C4.1591 4.49392 3.04995 6.20771 3.04004 8.09993L4.0001 8.10492C4.00805 6.58714 4.89768 5.21244 6.27903 4.58342L5.88118 3.70975ZM3.04014 8.10799C3.07169 10.819 5.29468 12.9911 8.00561 12.96L7.9946 12C5.81376 12.0251 4.02545 10.2777 4.00007 8.09686L3.04014 8.10799ZM7.9946 12.96C10.7055 12.9911 12.9287 10.819 12.9602 8.10799L12.0002 8.09686C11.9748 10.2777 10.1865 12.0251 8.00561 12L7.9946 12.96ZM12.9601 8.09993C12.9502 6.20771 11.8411 4.49392 10.119 3.70975L9.72119 4.58342C11.1025 5.21244 11.9922 6.58714 12.0001 8.10492L12.9601 8.09993Z" fill="#333333"/>
</svg>
