<svg viewBox="0 0 16 16" fill="none" xmlns="http://www.w3.org/2000/svg">
<path d="M4.9987 7.33333H3.06536C2.692 7.33333 2.50531 7.33333 2.3627 7.406C2.23726 7.46993 2.13528 7.57187 2.07136 7.69733C1.9987 7.83993 1.9987 8.0266 1.9987 8.4V14M10.9987 7.33333H12.932C13.3054 7.33333 13.4921 7.33333 13.6347 7.406C13.7602 7.46993 13.8621 7.57187 13.926 7.69733C13.9987 7.83993 13.9987 8.0266 13.9987 8.4V14M10.9987 14V4.13333C10.9987 3.3866 10.9987 3.01323 10.8534 2.72801C10.7256 2.47713 10.5216 2.27315 10.2707 2.14533C9.9855 2 9.6121 2 8.86536 2H7.13203C6.38529 2 6.01192 2 5.72671 2.14533C5.47582 2.27315 5.27185 2.47713 5.14402 2.72801C4.9987 3.01323 4.9987 3.3866 4.9987 4.13333V14M14.6654 14H1.33203M7.33203 4.66667H8.66536M7.33203 7.33333H8.66536M7.33203 10H8.66536" stroke="#005F6B" stroke-linecap="round" stroke-linejoin="round"/>
</svg>
