<svg width="24" height="24" viewBox="0 0 24 24" fill="none" xmlns="http://www.w3.org/2000/svg">
<rect width="24" height="24" rx="2" fill="#EEF7F7"/>
<path d="M8.9987 11.3333H7.06536C6.692 11.3333 6.50531 11.3333 6.3627 11.406C6.23726 11.4699 6.13528 11.5719 6.07136 11.6973C5.9987 11.8399 5.9987 12.0266 5.9987 12.4V18M14.9987 11.3333H16.932C17.3054 11.3333 17.4921 11.3333 17.6347 11.406C17.7602 11.4699 17.8621 11.5719 17.926 11.6973C17.9987 11.8399 17.9987 12.0266 17.9987 12.4V18M14.9987 18V8.13333C14.9987 7.3866 14.9987 7.01323 14.8534 6.72801C14.7256 6.47713 14.5216 6.27315 14.2707 6.14533C13.9855 6 13.6121 6 12.8654 6H11.132C10.3853 6 10.0119 6 9.72671 6.14533C9.47582 6.27315 9.27185 6.47713 9.14402 6.72801C8.9987 7.01323 8.9987 7.3866 8.9987 8.13333V18M18.6654 18H5.33203M11.332 8.66667H12.6654M11.332 11.3333H12.6654M11.332 14H12.6654" stroke="#005F6B" stroke-linecap="round" stroke-linejoin="round"/>
</svg>
