<svg width="20" height="20" viewBox="0 0 20 20" fill="none" xmlns="http://www.w3.org/2000/svg">
<rect width="20" height="20" fill="white"/>
<path d="M9.99961 17.9625C14.3972 17.9625 17.9621 14.3975 17.9621 9.99998C17.9621 5.60241 14.3972 2.03748 9.99961 2.03748C5.60204 2.03748 2.03711 5.60241 2.03711 9.99998C2.03711 14.3975 5.60204 17.9625 9.99961 17.9625Z" fill="#DDE9EC"/>
<path d="M7.60938 13.3093V6.69053C7.60967 6.66333 7.61721 6.63669 7.63121 6.61337C7.64521 6.59005 7.66517 6.57088 7.68904 6.55783C7.71291 6.54478 7.73983 6.53833 7.76702 6.53913C7.79421 6.53993 7.82069 6.54797 7.84375 6.5624L13.0531 9.87178C13.0744 9.8857 13.0919 9.90471 13.104 9.92708C13.1161 9.94945 13.1224 9.97447 13.1224 9.9999C13.1224 10.0253 13.1161 10.0504 13.104 10.0727C13.0919 10.0951 13.0744 10.1141 13.0531 10.128L7.84375 13.4374C7.82069 13.4518 7.79421 13.4599 7.76702 13.4607C7.73983 13.4615 7.71291 13.455 7.68904 13.442C7.66517 13.4289 7.64521 13.4098 7.63121 13.3864C7.61721 13.3631 7.60967 13.3365 7.60938 13.3093Z" fill="#005F6B"/>
</svg>
