<svg viewBox="0 0 14 14" fill="none" xmlns="http://www.w3.org/2000/svg">
<path d="M11.8396 3.20944C11.8396 3.2094 11.8397 3.20935 11.8397 3.20935L9.14305 0.512706C9.07971 0.449356 8.99219 0.410156 8.89551 0.410156H2.40469C2.21138 0.410156 2.05469 0.566851 2.05469 0.760156V13.2402C2.05469 13.4335 2.21138 13.5902 2.40469 13.5902H11.5922C11.7855 13.5902 11.9422 13.4335 11.9422 13.2402V3.45682C11.9422 3.36731 11.9059 3.27624 11.8396 3.20944ZM11.2422 12.8902H2.75469V1.11016H8.75054L10.7472 3.10682H9.24551V2.37553C9.24551 2.18222 9.08881 2.02553 8.89551 2.02553C8.7022 2.02553 8.54551 2.18222 8.54551 2.37553V3.45682C8.54551 3.65012 8.7022 3.80682 8.89551 3.80682C8.89551 3.80682 10.5126 3.80682 11.2422 3.80682V12.8902Z" fill="white"/>
<path d="M5.16415 3.92674L4.4667 4.6242L4.367 4.52451C4.23031 4.38781 4.00873 4.38781 3.87205 4.52451C3.73536 4.66118 3.73536 4.88278 3.87205 5.01948L4.21925 5.36668C4.28488 5.43232 4.37392 5.46919 4.46674 5.46919C4.55957 5.46919 4.6486 5.43232 4.71424 5.36668L5.65917 4.42169C5.79584 4.285 5.79584 4.0634 5.65915 3.92672C5.52242 3.79005 5.30082 3.79005 5.16415 3.92674Z" fill="white"/>
<path d="M9.76016 5.46953H9.87646C10.0698 5.46953 10.2265 5.31284 10.2265 5.11953C10.2265 4.92623 10.0698 4.76953 9.87646 4.76953H9.76016C9.56685 4.76953 9.41016 4.92623 9.41016 5.11953C9.41016 5.31284 9.56685 5.46953 9.76016 5.46953Z" fill="white"/>
<path d="M6.42812 4.76953C6.23482 4.76953 6.07812 4.92623 6.07812 5.11953C6.07812 5.31284 6.23482 5.46953 6.42812 5.46953H8.69628C8.88959 5.46953 9.04628 5.31284 9.04628 5.11953C9.04628 4.92623 8.88959 4.76953 8.69628 4.76953H6.42812Z" fill="white"/>
<path d="M9.76016 7.62187H9.87646C10.0698 7.62187 10.2265 7.46518 10.2265 7.27187C10.2265 7.07857 10.0698 6.92188 9.87646 6.92188H9.76016C9.56685 6.92188 9.41016 7.07857 9.41016 7.27187C9.41016 7.46518 9.56685 7.62187 9.76016 7.62187Z" fill="white"/>
<path d="M8.69628 6.92188H6.42812C6.23482 6.92188 6.07812 7.07857 6.07812 7.27187C6.07812 7.46518 6.23482 7.62187 6.42812 7.62187H8.69628C8.88959 7.62187 9.04628 7.46518 9.04628 7.27187C9.04628 7.07857 8.88959 6.92188 8.69628 6.92188Z" fill="white"/>
<path d="M9.76016 9.77422H9.87646C10.0698 9.77422 10.2265 9.61752 10.2265 9.42422C10.2265 9.23091 10.0698 9.07422 9.87646 9.07422H9.76016C9.56685 9.07422 9.41016 9.23091 9.41016 9.42422C9.41016 9.61752 9.56685 9.77422 9.76016 9.77422Z" fill="white"/>
<path d="M8.69628 9.07422H6.42812C6.23482 9.07422 6.07812 9.23091 6.07812 9.42422C6.07812 9.61752 6.23482 9.77422 6.42812 9.77422H8.69628C8.88959 9.77422 9.04628 9.61752 9.04628 9.42422C9.04628 9.23091 8.88959 9.07422 8.69628 9.07422Z" fill="white"/>
<path d="M9.76016 11.9266H9.87646C10.0698 11.9266 10.2265 11.7699 10.2265 11.5766C10.2265 11.3833 10.0698 11.2266 9.87646 11.2266H9.76016C9.56685 11.2266 9.41016 11.3833 9.41016 11.5766C9.41016 11.7699 9.56685 11.9266 9.76016 11.9266Z" fill="white"/>
<path d="M8.69628 11.2266H6.42812C6.23482 11.2266 6.07812 11.3833 6.07812 11.5766C6.07812 11.7699 6.23482 11.9266 6.42812 11.9266H8.69628C8.88959 11.9266 9.04628 11.7699 9.04628 11.5766C9.04628 11.3833 8.88959 11.2266 8.69628 11.2266Z" fill="white"/>
<path d="M4.4667 7.62151C4.55952 7.62151 4.64856 7.58464 4.71418 7.51899L5.65911 6.57406C5.7958 6.43737 5.7958 6.21575 5.65911 6.07908C5.52242 5.9424 5.30083 5.94238 5.16416 6.07908L4.46671 6.77654L4.36702 6.67682C4.23034 6.54015 4.00872 6.54011 3.87205 6.67681C3.73537 6.8135 3.73535 7.0351 3.87203 7.17178L4.21923 7.51899C4.28485 7.58462 4.37388 7.62151 4.4667 7.62151Z" fill="white"/>
<path d="M4.09702 8.95138L3.87204 9.17637C3.73536 9.31307 3.73536 9.53467 3.87205 9.67134C3.94039 9.73968 4.02996 9.77384 4.11954 9.77384C4.20912 9.77384 4.29869 9.73968 4.36704 9.67133L4.592 9.44636L4.81698 9.67133C4.8853 9.73968 4.97489 9.77384 5.06447 9.77384C5.15405 9.77384 5.24362 9.73968 5.31195 9.67133C5.44865 9.53464 5.44865 9.31305 5.31195 9.17637L5.08699 8.95138L5.31197 8.72638C5.44865 8.58969 5.44865 8.36809 5.31195 8.23141C5.17526 8.09474 4.95366 8.09474 4.81698 8.23143L4.592 8.45641L4.36701 8.23143C4.23031 8.09474 4.00873 8.09474 3.87205 8.23143C3.73538 8.36812 3.73536 8.58972 3.87205 8.72638L4.09702 8.95138Z" fill="white"/>
<path d="M5.16415 10.3838L4.4667 11.0812L4.367 10.9815C4.23031 10.8448 4.00873 10.8448 3.87205 10.9815C3.73536 11.1182 3.73536 11.3398 3.87205 11.4765L4.21925 11.8237C4.28488 11.8893 4.37392 11.9262 4.46674 11.9262C4.55957 11.9262 4.6486 11.8893 4.71424 11.8237L5.65917 10.8787C5.79584 10.742 5.79584 10.5204 5.65915 10.3837C5.52242 10.2471 5.30082 10.2471 5.16415 10.3838Z" fill="white"/>
</svg>
