<svg viewBox="0 0 12 12" fill="none" xmlns="http://www.w3.org/2000/svg">
<path d="M10.7629 4.23637C10.7532 4.06087 10.6242 3.91387 10.4404 3.91387C10.4221 3.91387 10.4044 3.92175 10.3864 3.92512C10.3846 3.92512 10.3831 3.924 10.3812 3.924C10.3444 3.92325 10.3077 3.92325 10.2709 3.92325C10.1326 3.92325 9.99381 3.927 9.85544 3.92925C9.66869 3.93225 9.48231 3.93562 9.29594 3.9465C9.29781 3.8535 9.29894 3.76012 9.30119 3.66712C9.30869 3.37875 9.30569 3.09075 9.30494 2.80237C9.30344 2.49037 9.30494 2.17762 9.33831 1.86712C9.34581 1.79812 9.35331 1.72913 9.36044 1.65975C9.36944 1.57875 9.32031 1.48537 9.26519 1.43025C9.25544 1.4205 9.24231 1.416 9.23144 1.40775C9.18906 1.29487 9.09044 1.20262 8.96144 1.21125C8.83806 1.22025 8.71169 1.212 8.58794 1.20675C8.48481 1.20225 8.38131 1.2015 8.27894 1.19925C8.16531 1.197 8.05244 1.1985 7.93881 1.197C7.85106 1.19625 7.76294 1.1895 7.67519 1.185C7.43219 1.1715 7.18919 1.16925 6.94656 1.16438C6.67394 1.15838 6.40206 1.13025 6.12944 1.12575C6.09681 1.12538 6.06494 1.125 6.03269 1.125C5.81294 1.125 5.59394 1.137 5.37419 1.1415C5.12519 1.146 4.87656 1.15275 4.62756 1.1535C4.37931 1.1535 4.13144 1.1535 3.88319 1.14675C3.66869 1.1415 3.45344 1.15837 3.23931 1.17562C3.19056 1.17937 3.14744 1.19213 3.10694 1.21088C2.96069 1.22738 2.84444 1.35 2.84294 1.49962C2.84219 1.65487 2.84369 1.80937 2.83919 1.96462C2.83656 2.04637 2.82906 2.12812 2.82681 2.2095C2.82081 2.40412 2.82081 2.59762 2.82831 2.79262C2.84369 3.213 2.85944 3.63375 2.87369 4.05412C2.76681 4.04737 2.65994 4.04625 2.55306 4.04812C2.49531 4.04962 2.43719 4.05112 2.37981 4.05037C2.27069 4.05037 2.16156 4.03687 2.05206 4.0275C1.89906 4.01475 1.74681 4.008 1.59381 4.00575C1.59194 4.00575 1.59044 4.00575 1.58856 4.00575C1.41906 4.00575 1.27881 4.15237 1.27881 4.32075C1.27881 4.35225 1.28819 4.38075 1.29719 4.40925C1.29269 4.43025 1.28444 4.45012 1.28406 4.47225C1.26606 5.15512 1.28481 5.83837 1.26906 6.52125C1.26606 6.67462 1.25481 6.8265 1.25181 6.97988C1.24806 7.14337 1.24731 7.30762 1.24581 7.4715C1.24281 7.803 1.24956 8.1345 1.25406 8.46562C1.25856 8.82187 1.26231 9.17812 1.26306 9.53437C1.26306 9.70237 1.26231 9.86962 1.25106 10.0376C1.24206 10.1779 1.23119 10.3189 1.22219 10.4595C1.21506 10.5757 1.28369 10.6751 1.37556 10.7347C1.43031 10.8026 1.51019 10.8495 1.60244 10.8484C1.85781 10.8454 2.11356 10.83 2.36894 10.8307C2.50131 10.8307 2.63406 10.842 2.76644 10.8427C2.89581 10.8435 3.02406 10.8337 3.15269 10.8255C3.41631 10.8097 3.68069 10.8075 3.94544 10.8075C4.21581 10.8075 4.48469 10.8067 4.75431 10.821C4.89119 10.8285 5.02844 10.8367 5.16494 10.842C5.29356 10.8472 5.42256 10.8457 5.55194 10.8465C5.83131 10.8495 6.11144 10.8495 6.39119 10.8487C6.66756 10.848 6.94394 10.8547 7.22031 10.8562C7.34969 10.857 7.47794 10.857 7.60731 10.8562C7.75506 10.8562 7.90281 10.8555 8.05094 10.8562C8.45294 10.86 8.85456 10.8682 9.25656 10.869C9.42531 10.8697 9.59294 10.8787 9.76169 10.8735C9.93569 10.8675 10.1078 10.8491 10.2826 10.8484C10.3441 10.848 10.3984 10.824 10.4461 10.7902C10.4881 10.785 10.5293 10.7711 10.5661 10.7494C10.6144 10.7212 10.6523 10.6834 10.6804 10.635C10.7093 10.5851 10.7243 10.5319 10.7243 10.4737C10.7569 10.2019 10.7363 9.92325 10.7363 9.64913C10.7363 9.34237 10.7348 9.03637 10.7461 8.72962C10.7682 8.11762 10.7674 7.50637 10.7704 6.89325C10.7712 6.68287 10.7704 6.47212 10.7734 6.261C10.7764 6.04425 10.7884 5.82637 10.7929 5.60962C10.8031 5.15212 10.7888 4.69312 10.7629 4.23637ZM9.30306 4.56C9.43206 4.548 9.56144 4.53937 9.69119 4.53412C9.55994 4.63537 9.42981 4.73812 9.30044 4.842C9.30194 4.75012 9.30194 4.65825 9.30306 4.56637C9.30306 4.5645 9.30306 4.56225 9.30306 4.56ZM9.15269 5.68312C9.34094 5.52975 9.52919 5.376 9.72044 5.22637C9.86294 5.11912 10.0111 5.022 10.1569 4.92075C10.1633 5.06137 10.1697 5.20162 10.1719 5.34262C10.1772 5.65312 10.1517 5.96212 10.1446 6.27262C10.1363 6.59362 10.1401 6.91537 10.1408 7.236C10.1416 7.53675 10.1378 7.8375 10.1341 8.13787C10.1288 8.53462 10.1168 8.93062 10.1146 9.32625C10.1131 9.50662 10.1123 9.68812 10.1108 9.8685C10.1108 9.87412 10.1108 9.87975 10.1108 9.88537C9.75531 9.41887 9.40956 8.94487 9.06194 8.47237C8.86956 8.211 8.67569 7.95075 8.49456 7.68112C8.29694 7.389 8.10231 7.0965 7.91969 6.795C7.90619 6.7725 7.88931 6.75337 7.87169 6.73537C7.88294 6.72637 7.89381 6.71625 7.90506 6.70725C8.14056 6.52012 8.36856 6.32325 8.59956 6.13088C8.78181 5.97862 8.96819 5.83237 9.15269 5.68312ZM3.92069 1.73813C4.11456 1.74863 4.30919 1.74862 4.50381 1.74787C4.58856 1.74787 4.67256 1.74787 4.75694 1.74787C5.02281 1.75012 5.29019 1.75312 5.55606 1.74487C5.82569 1.73662 6.09606 1.71825 6.36644 1.72537C6.48531 1.72912 6.60419 1.73962 6.72306 1.74262C6.86031 1.74637 6.99719 1.75012 7.13444 1.75162C7.33881 1.75462 7.54169 1.76925 7.74494 1.78125C7.93656 1.79175 8.12819 1.7955 8.32056 1.79625C8.41506 1.797 8.50844 1.8045 8.60294 1.80375C8.63631 1.80337 8.66969 1.80225 8.70306 1.8015C8.68544 2.07487 8.68244 2.34862 8.67419 2.62312C8.66519 2.91937 8.67344 3.21675 8.66894 3.513C8.66669 3.66375 8.66294 3.81375 8.66369 3.9645C8.66369 4.11075 8.66969 4.25625 8.67644 4.40287C8.68769 4.6635 8.68544 4.92375 8.68544 5.18512C8.68544 5.22375 8.68619 5.26162 8.68769 5.30025C8.68806 5.3085 8.69181 5.31525 8.69256 5.3235C8.48969 5.4825 8.28756 5.64262 8.08806 5.8065C7.85181 6.00112 7.62006 6.20175 7.37856 6.38962C7.38231 6.387 7.38606 6.384 7.38944 6.38137C7.12656 6.58687 6.87456 6.80625 6.61319 7.01362C6.48531 7.1145 6.35856 7.218 6.23069 7.31887C6.15944 7.3755 6.09006 7.43437 6.02069 7.49287C5.85044 7.37212 5.68094 7.251 5.51444 7.12387C5.52531 7.13212 5.53619 7.14075 5.54669 7.14937C5.53431 7.13962 5.52194 7.12987 5.50919 7.12012C5.50094 7.11375 5.49269 7.10737 5.48406 7.101C5.49119 7.10625 5.49794 7.1115 5.50506 7.11675C5.08469 6.78937 4.66731 6.45712 4.24881 6.12787C3.99719 5.93025 3.74669 5.73112 3.49656 5.53125C3.49656 5.4735 3.49919 5.41612 3.50181 5.35987C3.50631 5.2545 3.51006 5.1495 3.51531 5.04412C3.52806 4.78875 3.52356 4.533 3.51831 4.27762C3.51456 4.014 3.51156 3.74962 3.49619 3.4875C3.48269 3.27 3.48119 3.05062 3.46881 2.83237C3.46506 2.75775 3.45531 2.6835 3.44931 2.6085C3.43956 2.48887 3.44031 2.36775 3.43506 2.24737C3.43244 2.16225 3.42569 2.07675 3.42344 1.99125C3.42044 1.9155 3.42194 1.83937 3.42381 1.76362C3.58919 1.74562 3.75494 1.72875 3.92069 1.73813ZM4.12094 6.918C4.07481 6.97725 4.02869 7.03725 3.98256 7.09687C3.98781 7.09012 3.99269 7.08375 3.99794 7.077C3.83331 7.28925 3.65744 7.4925 3.48569 7.69875C3.31131 7.9095 3.13356 8.11837 2.95844 8.3295C2.78819 8.53387 2.61906 8.73975 2.45481 8.94975C2.27744 9.17662 2.09594 9.4005 1.92006 9.6285C1.92456 9.6225 1.92906 9.61687 1.93356 9.61087C1.92156 9.62662 1.90956 9.642 1.89794 9.65737C1.90206 9.36 1.90169 9.06187 1.90244 8.76375C1.90244 8.44087 1.89119 8.11875 1.89044 7.79662C1.88894 7.46737 1.88519 7.1385 1.89419 6.80925C1.90394 6.44362 1.90544 6.07912 1.90844 5.71425C1.91031 5.4855 1.91894 5.25712 1.92531 5.02875C2.03556 5.11687 2.14544 5.20575 2.25419 5.29575C2.41394 5.42775 2.58081 5.55112 2.74506 5.67712C2.98019 5.86312 3.20744 6.05775 3.44181 6.24375C3.68406 6.43612 3.92519 6.62925 4.16744 6.82237C4.17306 6.82687 4.17869 6.83137 4.18469 6.83587C4.16219 6.86325 4.14156 6.89062 4.12094 6.918ZM2.66969 4.66837C2.74094 4.66837 2.81294 4.66537 2.88494 4.66762C2.88531 4.79175 2.88531 4.91625 2.88344 5.04037C2.72969 4.91812 2.57781 4.79362 2.42894 4.66537C2.50919 4.66762 2.58981 4.66837 2.66969 4.66837ZM8.75369 10.3125C8.47731 10.3125 8.20094 10.3073 7.92381 10.308C7.64819 10.3095 7.37181 10.308 7.09619 10.3057C6.81231 10.3027 6.52956 10.29 6.24644 10.29C5.97156 10.2907 5.69744 10.293 5.42331 10.29C5.15369 10.287 4.88406 10.278 4.61444 10.2626C4.42206 10.251 4.22856 10.2484 4.03544 10.2484C3.96606 10.2484 3.89631 10.2487 3.82694 10.2491C3.76244 10.2499 3.69756 10.2491 3.63306 10.2491C3.50969 10.2484 3.38631 10.2476 3.26294 10.2529C3.07731 10.2611 2.89244 10.2731 2.70644 10.2671C2.61719 10.2649 2.52756 10.2596 2.43831 10.2566C2.35319 10.254 2.26806 10.2581 2.18331 10.2604C2.21481 10.2202 2.24669 10.1805 2.27781 10.14C2.41619 9.96 2.55231 9.7785 2.68956 9.59737C2.68656 9.6015 2.68319 9.60562 2.68019 9.60975C2.69444 9.59062 2.70906 9.5715 2.72369 9.55237C2.72069 9.5565 2.71731 9.56062 2.71394 9.56475C2.70606 9.57487 2.69856 9.58537 2.69069 9.5955C2.68319 9.60525 2.67569 9.61462 2.66819 9.624C2.68731 9.59925 2.70606 9.5745 2.72519 9.54975C2.72181 9.55462 2.71806 9.55912 2.71431 9.564C2.71994 9.55687 2.72556 9.54975 2.73081 9.54262C2.73869 9.5325 2.74656 9.522 2.75444 9.51187C2.75219 9.51487 2.74994 9.51787 2.74769 9.52087C3.03756 9.14962 3.33944 8.78925 3.64056 8.42737C3.97806 8.022 4.33656 7.63425 4.66169 7.21912C4.73556 7.27837 4.81019 7.3365 4.88331 7.39612C5.11806 7.58775 5.35506 7.77562 5.60031 7.95412C5.63069 7.97625 5.66144 7.99875 5.69219 8.02087C5.72744 8.10487 5.79381 8.175 5.88606 8.19825C5.97906 8.22112 6.05856 8.205 6.14069 8.16112C6.17781 8.14125 6.21044 8.109 6.24306 8.08312C6.28244 8.052 6.32181 8.02087 6.35969 7.98787C6.46056 7.90237 6.55731 7.81237 6.65969 7.72875C6.76131 7.6455 6.86106 7.55925 6.96419 7.47787C7.07106 7.39237 7.17944 7.30987 7.28594 7.224C7.31931 7.19662 7.35231 7.1685 7.38531 7.14075C7.48544 7.30012 7.58931 7.4565 7.69881 7.6095C7.78881 7.73587 7.88069 7.86037 7.97069 7.98675C8.15856 8.25112 8.34869 8.514 8.53881 8.77725C8.90519 9.28312 9.28394 9.77925 9.65594 10.2799C9.66231 10.2885 9.66869 10.2971 9.67506 10.3057C9.62856 10.3065 9.58206 10.308 9.53594 10.3087C9.27606 10.314 9.01544 10.3132 8.75369 10.3125ZM5.50656 7.116C5.50956 7.11825 5.51256 7.1205 5.51556 7.12313C5.51406 7.122 5.51219 7.1205 5.51069 7.11937C5.50919 7.11825 5.50806 7.11712 5.50656 7.116ZM2.74919 9.52125C2.74094 9.53212 2.73269 9.54262 2.72444 9.55312C2.72706 9.54975 2.72969 9.54637 2.73231 9.543C2.73794 9.53587 2.74356 9.52837 2.74919 9.52125ZM2.70981 9.57187C2.71131 9.56962 2.71319 9.56775 2.71469 9.5655L2.71544 9.56437C2.71356 9.567 2.71169 9.56925 2.70981 9.57187ZM2.25906 10.1659C2.26544 10.1572 2.27181 10.1486 2.27856 10.1404C2.28194 10.1359 2.28531 10.1317 2.28869 10.1272C2.27856 10.14 2.26881 10.1531 2.25906 10.1659ZM4.61219 3.57787C4.55631 3.52237 4.52444 3.44512 4.52444 3.36562C4.52444 3.28688 4.55631 3.20962 4.61219 3.15375C4.65944 3.1065 4.73631 3.0645 4.80644 3.0645C4.81244 3.0645 4.81844 3.06487 4.82444 3.06562C4.96244 3.08062 5.10156 3.0945 5.24031 3.1065C5.31381 3.11325 5.38656 3.12075 5.46006 3.11025C5.43494 3.114 5.40944 3.117 5.38356 3.12075C5.54181 3.09937 5.70156 3.1035 5.86056 3.105C5.99519 3.1065 6.12944 3.105 6.26406 3.1035C6.45044 3.102 6.63681 3.1065 6.82281 3.10725C6.95931 3.10725 7.09544 3.10275 7.23119 3.0975C7.39394 3.09075 7.52969 3.2385 7.52969 3.396C7.52969 3.55575 7.39394 3.699 7.23119 3.6945C7.03956 3.69 6.84794 3.67312 6.65631 3.67312C6.44181 3.67312 6.22619 3.67312 6.01169 3.66937C5.84219 3.66637 5.67081 3.67687 5.50131 3.68512C5.27631 3.69637 5.04906 3.68587 4.82444 3.66675C4.74231 3.6585 4.67256 3.63787 4.61219 3.57787ZM4.48281 4.50187C4.48281 4.33762 4.62156 4.19512 4.78806 4.19737C4.81919 4.19737 4.85031 4.19812 4.88181 4.19887C5.01569 4.20187 5.14919 4.20787 5.28381 4.21012C5.41881 4.21162 5.55494 4.20037 5.68956 4.19362C5.81519 4.18687 5.94006 4.18687 6.06456 4.18387C6.17069 4.18237 6.27719 4.17412 6.38406 4.17337C6.46506 4.17262 6.54681 4.17037 6.62781 4.16962C6.67244 4.16962 6.71706 4.17187 6.76169 4.17337C6.80931 4.17562 6.85731 4.17712 6.90569 4.17637C6.94056 4.17637 6.97619 4.17637 7.01106 4.17637C7.08531 4.17637 7.15956 4.17637 7.23419 4.17C7.25931 4.16362 7.28481 4.16062 7.30994 4.16062C7.44269 4.16062 7.56644 4.24725 7.60319 4.3815C7.64631 4.536 7.55256 4.71337 7.39281 4.75237C7.35194 4.76212 7.30956 4.76587 7.26794 4.7685C7.13556 4.77825 7.00431 4.77975 6.87119 4.7745C6.78269 4.7715 6.69381 4.773 6.60531 4.77375C6.51306 4.77525 6.42044 4.776 6.32894 4.77225C6.22206 4.76775 6.11594 4.773 6.00869 4.776C5.87856 4.779 5.74956 4.7775 5.61944 4.7805C5.34231 4.788 5.06519 4.80375 4.78806 4.80712C4.62156 4.80937 4.48281 4.66687 4.48281 4.50187Z" fill="currentColor"/>
</svg>
