<svg width="16" height="16" viewBox="0 0 16 16" fill="none" xmlns="http://www.w3.org/2000/svg">
<path fill-rule="evenodd" clip-rule="evenodd" d="M10.1953 2.19526C10.4556 1.93491 10.8777 1.93491 11.1381 2.19526L14.2761 5.33333L11.1381 8.4714C10.8777 8.73173 10.4556 8.73173 10.1953 8.4714C9.93493 8.21107 9.93493 7.78893 10.1953 7.5286L11.7239 6H6.66667C4.82572 6 3.33333 7.4924 3.33333 9.33333C3.33333 11.1743 4.82571 12.6667 6.66667 12.6667H10.5641C10.9323 12.6667 11.2308 12.9651 11.2308 13.3333C11.2308 13.7015 10.9323 14 10.5641 14H6.66667C4.08933 14 2 11.9107 2 9.33333C2 6.756 4.08934 4.66667 6.66667 4.66667H11.7239L10.1953 3.13807C9.93493 2.87772 9.93493 2.45561 10.1953 2.19526Z" fill="#3456DA"/>
</svg>
