<svg viewBox="0 0 19 18" fill="none" xmlns="http://www.w3.org/2000/svg">
<path fill-rule="evenodd" clip-rule="evenodd" d="M12.2929 0.29289C12.6834 -0.09763 13.3166 -0.09763 13.7071 0.29289L18.4142 5L13.7071 9.7071C13.3166 10.0976 12.6834 10.0976 12.2929 9.7071C11.9024 9.3166 11.9024 8.6834 12.2929 8.2929L14.5858 6H7C4.23858 6 2 8.2386 2 11C2 13.7614 4.23857 16 7 16H12.8462C13.3984 16 13.8462 16.4477 13.8462 17C13.8462 17.5523 13.3984 18 12.8462 18H7C3.134 18 0 14.866 0 11C0 7.134 3.13401 4 7 4H14.5858L12.2929 1.70711C11.9024 1.31658 11.9024 0.68342 12.2929 0.29289Z" fill="#585563"/>
</svg>
