<svg width="12" height="12" viewBox="0 0 12 12" fill="none" xmlns="http://www.w3.org/2000/svg">
<path d="M11.3337 0.666504L6.00033 5.99984M11.3337 0.666504V3.6665M11.3337 0.666504H8.33366M10.667 6.33317V9.19984C10.667 9.94657 10.667 10.32 10.5217 10.6052C10.3939 10.856 10.1899 11.06 9.93899 11.1878C9.65379 11.3332 9.28039 11.3332 8.53366 11.3332H2.80033C2.05359 11.3332 1.68022 11.3332 1.39501 11.1878C1.14412 11.06 0.940145 10.856 0.812319 10.6052C0.666992 10.32 0.666992 9.94657 0.666992 9.19984V3.4665C0.666992 2.71977 0.666992 2.3464 0.812319 2.06118C0.940145 1.8103 1.14412 1.60632 1.39501 1.4785C1.68022 1.33317 2.05359 1.33317 2.80033 1.33317H5.66699" stroke="#333333" stroke-linecap="round" stroke-linejoin="round"/>
</svg>
