<svg width="24" height="24" viewBox="0 0 24 24" fill="none" xmlns="http://www.w3.org/2000/svg">
<path d="M13.4242 7.425C9.97422 8.1 8.92422 9.15 8.24922 12.6C7.57422 9.15 6.52422 8.1 3.07422 7.425C6.52422 6.75 7.57422 5.7 8.24922 2.25C8.92422 5.7 9.97422 6.75 13.4242 7.425Z" stroke="white" stroke-miterlimit="10" stroke-linecap="round" stroke-linejoin="round"/>
<path d="M16.3504 18.7504C13.9504 19.2004 13.2754 19.9504 12.7504 22.3504C12.3004 19.9504 11.5504 19.2754 9.15039 18.7504C11.5504 18.3004 12.2254 17.5504 12.7504 15.1504C13.2004 17.5504 13.9504 18.3004 16.3504 18.7504Z" stroke="white" stroke-miterlimit="10" stroke-linecap="round" stroke-linejoin="round"/>
<path d="M21.7504 11.2502C19.8004 11.6252 19.2004 12.2252 18.8254 14.1752C18.4504 12.2252 17.8504 11.6252 15.9004 11.2502C17.8504 10.8752 18.4504 10.2752 18.8254 8.3252C19.2004 10.2752 19.8004 10.8752 21.7504 11.2502Z" stroke="white" stroke-miterlimit="10" stroke-linecap="round" stroke-linejoin="round"/>
<circle cx="3.75" cy="17.25" r="0.75" fill="white"/>
<circle cx="21" cy="4.5" r="0.75" fill="white"/>
</svg>
