<svg width="24" height="24" viewBox="0 0 24 24" fill="none" xmlns="http://www.w3.org/2000/svg">
<g opacity="0.5">
<path d="M14.3906 5.86016C15.755 6.40538 16.4372 6.67798 16.5196 7.24324C16.6019 7.80849 16.0298 8.29204 14.8856 9.25915L14.5895 9.50935C14.2644 9.78417 14.1018 9.92158 14.0086 10.1089C13.9154 10.2962 13.9021 10.5121 13.8756 10.9441L13.8514 11.3373C13.7581 12.8574 13.7114 13.6174 13.2174 13.8794C12.7234 14.1414 12.1093 13.7319 10.8811 12.9129L10.5634 12.701C10.2144 12.4683 10.0399 12.3519 9.84035 12.32C9.64075 12.288 9.43865 12.344 9.03455 12.456L8.66665 12.558C7.24445 12.9522 6.53335 13.1493 6.14575 12.746C5.75815 12.3427 5.95075 11.6061 6.33585 10.1328M6.00125 7.83522C5.21575 6.55883 4.82295 5.92063 5.07735 5.40935C5.33175 4.89806 6.06485 4.85229 7.53115 4.76076L7.91045 4.73708C8.32715 4.71107 8.53545 4.69807 8.71635 4.60208C8.89735 4.5061 9.03045 4.338 9.29655 4.00181L9.53885 3.69574C10.4755 2.51266 10.9438 1.92112 11.4887 2.00845C12.0335 2.09577 12.294 2.80412 12.8151 4.22083" stroke="white" stroke-linecap="round"/>
<path d="M16.5535 7.24121C18.8886 8.94915 20.6763 12.2158 19.7516 18.0004C18.933 15.5892 16.4655 13.6579 13.7092 12.7283" stroke="white" stroke-linecap="round" stroke-linejoin="round"/>
<path d="M13.7192 16C13.7192 16 13.0865 17.3908 12.3065 17.8692C11.5265 18.3475 10 18.2808 10 18.2808C10 18.2808 11.3908 18.9135 11.8692 19.6935C12.3475 20.4735 12.2808 22 12.2808 22C12.2808 22 12.9135 20.6092 13.6935 20.1308C14.4735 19.6525 16 19.7192 16 19.7192C16 19.7192 14.6092 19.0865 14.1308 18.3065C13.6525 17.5265 13.7192 16 13.7192 16Z" stroke="white" stroke-linejoin="round"/>
<path d="M5.5205 15C5.5205 15 5.9423 15.9272 6.4623 16.2461C6.9823 16.565 8 16.5205 8 16.5205C8 16.5205 7.0728 16.9423 6.7539 17.4623C6.435 17.9823 6.4795 19 6.4795 19C6.4795 19 6.0577 18.0728 5.5377 17.7539C5.0177 17.435 4 17.4795 4 17.4795C4 17.4795 4.9272 17.0577 5.2461 16.5377C5.565 16.0177 5.5205 15 5.5205 15Z" stroke="white" stroke-linejoin="round"/>
</g>
</svg>
