<svg width="24" height="24" viewBox="0 0 24 24" fill="none" xmlns="http://www.w3.org/2000/svg">
<g clip-path="url(#clip0_6261_103691)">
<rect width="24" height="24" rx="2" fill="#EEF7F7"/>
<path d="M9.2 16.8322L10.803 18.486C10.9598 18.6489 11.1463 18.7782 11.3517 18.8664C11.5572 18.9546 11.7775 19 12 19C12.2225 19 12.4428 18.9546 12.6483 18.8664C12.8537 18.7782 13.0402 18.6489 13.197 18.486L14.8 16.8322H16.2C16.9426 16.8322 17.6548 16.5279 18.1799 15.9863C18.705 15.4445 19 14.7098 19 13.9436V8.8886C19 8.12249 18.705 7.38781 18.1799 6.84609C17.6548 6.30438 16.9426 6 16.2 6H7.8C7.05739 6 6.3452 6.30438 5.8201 6.84609C5.29499 7.38781 5 8.12249 5 8.8886V13.9436C5 14.7098 5.29499 15.4445 5.8201 15.9863C6.3452 16.5279 7.05739 16.8322 7.8 16.8322H9.2Z" stroke="#005F6B" stroke-linecap="round" stroke-linejoin="round"/>
<path d="M9.252 10.2H9.9V13H9.252V10.2ZM7.98 13H7.332V10.2H7.98V13ZM9.3 11.852H7.932V11.304H9.3V11.852ZM11.5865 13.032C11.3411 13.032 11.1251 12.984 10.9385 12.888C10.7545 12.792 10.6118 12.6613 10.5105 12.496C10.4091 12.328 10.3585 12.1373 10.3585 11.924C10.3585 11.708 10.4078 11.5173 10.5065 11.352C10.6078 11.184 10.7451 11.0533 10.9185 10.96C11.0918 10.864 11.2878 10.816 11.5065 10.816C11.7171 10.816 11.9065 10.8613 12.0745 10.952C12.2451 11.04 12.3798 11.168 12.4785 11.336C12.5771 11.5013 12.6265 11.7 12.6265 11.932C12.6265 11.956 12.6251 11.984 12.6225 12.016C12.6198 12.0453 12.6171 12.0733 12.6145 12.1H10.8665V11.736H12.2865L12.0465 11.844C12.0465 11.732 12.0238 11.6347 11.9785 11.552C11.9331 11.4693 11.8705 11.4053 11.7905 11.36C11.7105 11.312 11.6171 11.288 11.5105 11.288C11.4038 11.288 11.3091 11.312 11.2265 11.36C11.1465 11.4053 11.0838 11.4707 11.0385 11.556C10.9931 11.6387 10.9705 11.7373 10.9705 11.852V11.948C10.9705 12.0653 10.9958 12.1693 11.0465 12.26C11.0998 12.348 11.1731 12.416 11.2665 12.464C11.3625 12.5093 11.4745 12.532 11.6025 12.532C11.7171 12.532 11.8171 12.5147 11.9025 12.48C11.9905 12.4453 12.0705 12.3933 12.1425 12.324L12.4745 12.684C12.3758 12.796 12.2518 12.8827 12.1025 12.944C11.9531 13.0027 11.7811 13.032 11.5865 13.032ZM13.0419 13V10.032H13.6659V13H13.0419ZM15.517 13.032C15.3357 13.032 15.177 12.992 15.041 12.912C14.905 12.832 14.7984 12.7107 14.721 12.548C14.6464 12.3827 14.609 12.1747 14.609 11.924C14.609 11.6707 14.645 11.4627 14.717 11.3C14.789 11.1373 14.893 11.016 15.029 10.936C15.165 10.856 15.3277 10.816 15.517 10.816C15.7197 10.816 15.901 10.8627 16.061 10.956C16.2237 11.0467 16.3517 11.1747 16.445 11.34C16.541 11.5053 16.589 11.7 16.589 11.924C16.589 12.1507 16.541 12.3467 16.445 12.512C16.3517 12.6773 16.2237 12.8053 16.061 12.896C15.901 12.9867 15.7197 13.032 15.517 13.032ZM14.245 13.776V10.848H14.841V11.288L14.829 11.928L14.869 12.564V13.776H14.245ZM15.409 12.52C15.513 12.52 15.605 12.496 15.685 12.448C15.7677 12.4 15.833 12.332 15.881 12.244C15.9317 12.1533 15.957 12.0467 15.957 11.924C15.957 11.7987 15.9317 11.692 15.881 11.604C15.833 11.516 15.7677 11.448 15.685 11.4C15.605 11.352 15.513 11.328 15.409 11.328C15.305 11.328 15.2117 11.352 15.129 11.4C15.0464 11.448 14.981 11.516 14.933 11.604C14.885 11.692 14.861 11.7987 14.861 11.924C14.861 12.0467 14.885 12.1533 14.933 12.244C14.981 12.332 15.0464 12.4 15.129 12.448C15.2117 12.496 15.305 12.52 15.409 12.52Z" fill="#005F6B"/>
</g>
<defs>
<clipPath id="clip0_6261_103691">
<rect width="24" height="24" fill="white"/>
</clipPath>
</defs>
</svg>
