<svg width="16" height="16" viewBox="0 0 16 16" fill="none" xmlns="http://www.w3.org/2000/svg">
<path fill-rule="evenodd" clip-rule="evenodd" d="M8 13C10.7614 13 13 10.7614 13 8C13 5.23857 10.7614 3 8 3C5.23857 3 3 5.23857 3 8C3 10.7614 5.23857 13 8 13ZM8 14C11.3137 14 14 11.3137 14 8C14 4.68629 11.3137 2 8 2C4.68629 2 2 4.68629 2 8C2 11.3137 4.68629 14 8 14ZM8.5 10V11H7.5V10H8.5ZM7 6.95453C7 6.44175 7.43313 6 8 6C8.56687 6 9 6.44175 9 6.95453C9 7.15933 8.87673 7.40207 8.60507 7.67727C8.34173 7.94407 8.00693 8.17287 7.72853 8.3528L7.5 8.5006V9.5H8.5V9.04153C8.75413 8.86867 9.0552 8.64473 9.3168 8.37973C9.65453 8.0376 10 7.55307 10 6.95453C10 5.86069 9.08993 5 8 5C6.91007 5 6 5.86069 6 6.95453H7Z" fill="#333333"/>
</svg>
