<svg width="16" height="16" viewBox="0 0 16 16" fill="none" xmlns="http://www.w3.org/2000/svg">
<path d="M10.6036 7.94745C9.12009 7.94743 7.75093 8.35447 6.7342 9.16974C5.71747 9.98501 5.0781 11.2234 5.07813 12.7443V12.7456V12.7468C5.07827 12.7694 5.0806 14.1105 5.0806 14.1105L5.07813 15.9343H15.9841L15.9933 14.1105C15.9933 14.1105 15.9951 13.4515 15.9957 13.1986C15.9963 12.9456 15.9988 12.7354 15.9982 12.754V12.7491V12.7441C15.9982 11.0709 15.2278 9.82299 14.1719 9.05092C13.1161 8.27885 11.7967 7.94727 10.6045 7.94727L10.6036 7.94745ZM10.6036 8.86776C11.6206 8.86777 12.7688 9.16655 13.6269 9.79406C14.4851 10.4216 15.0769 11.3428 15.0769 12.7443C15.0757 12.8107 15.0751 12.947 15.0744 13.1949C15.0738 13.448 15.0732 13.7784 15.072 14.108C15.0708 14.4359 15.0689 14.7622 15.0671 15.0139H6.0042C6.00297 14.7622 6.00111 14.4354 6.00049 14.108C5.99865 13.4506 5.99867 12.8163 5.99806 12.7443C5.99804 11.4726 6.49235 10.5424 7.30902 9.88753C8.12569 9.23269 9.28938 8.86774 10.6036 8.86776Z" fill="#005F6B"/>
<path d="M10.6003 0.0800781C8.66251 0.0800781 7.08203 1.65788 7.08203 3.59355C7.08203 5.52923 8.66251 7.10823 10.6003 7.10823C12.5381 7.10823 14.1198 5.52923 14.1198 3.59355C14.1198 1.65788 12.5381 0.0800781 10.6003 0.0800781ZM10.6003 1.00039C12.0416 1.00039 13.1995 2.15614 13.1995 3.59355C13.1995 5.03097 12.0416 6.18792 10.6003 6.18792C9.159 6.18792 8.00234 5.03097 8.00234 3.59355C8.00234 2.15614 9.159 1.00039 10.6003 1.00039Z" fill="#005F6B"/>
<path d="M4.83048 8.31253C3.44774 8.31249 2.23968 8.69655 1.37332 9.47131C0.506967 10.2461 0.0154471 11.4018 0.015625 12.8026V12.8039V12.8051C0.0157478 12.8295 0.0180966 14.1388 0.0180966 14.1388L0.0273461 15.9339H3.79415H4.3046V15.0136H3.79415H0.940953C0.939726 14.7683 0.939133 14.4546 0.938519 14.1376C0.937292 13.4915 0.936661 12.8612 0.936047 12.8003C0.936483 11.6089 1.32542 10.7496 1.98697 10.158C2.64855 9.56639 3.61649 9.23336 4.82819 9.23292C4.96512 9.23414 5.37096 9.27388 5.37096 9.27388C5.37096 9.27388 5.83934 8.71474 6.05168 8.44438L5.59751 8.37368C5.34477 8.33435 5.08889 8.31404 4.83299 8.31257H4.83175L4.83048 8.31253Z" fill="#005F6B"/>
<path d="M4.78414 1.26766C3.03617 1.25539 1.59774 2.66985 1.58601 4.41565C1.57411 6.16143 2.99329 7.59522 4.74126 7.60662C5.49745 7.61092 6.22692 7.34509 6.80144 6.86321C6.87125 6.80474 6.93811 6.74337 7.00283 6.67882L7.2365 6.44403L6.67869 5.70238L6.43194 5.95818C6.38673 6.00506 6.25991 6.11688 6.21063 6.15819C5.80266 6.50038 5.2836 6.68958 4.74628 6.68635C3.49469 6.67819 2.49782 5.6691 2.50632 4.42186C2.51473 3.17462 3.52514 2.17915 4.77673 2.18793C5.15831 2.19038 5.53387 2.28924 5.86645 2.47571L6.26759 2.70134C6.26759 2.70134 6.55532 1.94948 6.59582 1.8333L6.31649 1.67348C5.84832 1.41096 5.32103 1.27151 4.78414 1.26766Z" fill="#005F6B"/>
</svg>
