<svg viewBox="0 0 16 16" fill="none" xmlns="http://www.w3.org/2000/svg">
<g clip-path="url(#clip0_352_1939)">
<path d="M10.6016 7.94722C9.11814 7.9472 7.74898 8.35423 6.73225 9.1695C5.71552 9.98478 5.07615 11.2232 5.07617 12.7441V12.7453V12.7466C5.07632 12.7692 5.07864 14.1103 5.07864 14.1103L5.07617 15.9341H15.9822L15.9913 14.1103C15.9913 14.1103 15.9932 13.4513 15.9938 13.1983C15.9944 12.9454 15.9968 12.7352 15.9962 12.7538V12.7488V12.7439C15.9962 11.0707 15.2258 9.82275 14.17 9.05068C13.1141 8.27862 11.7948 7.94704 10.6026 7.94703L10.6016 7.94722ZM10.6016 8.86753C11.6186 8.86753 12.7668 9.16632 13.625 9.79383C14.4831 10.4213 15.075 11.3426 15.075 12.7441C15.0737 12.8105 15.0731 12.9468 15.0725 13.1947C15.0719 13.4478 15.0713 13.7782 15.0701 14.1078C15.0688 14.4356 15.067 14.7619 15.0651 15.0137H6.00225C6.00102 14.762 5.99916 14.4352 5.99854 14.1078C5.9967 13.4504 5.99672 12.8161 5.99611 12.7441C5.99608 11.4723 6.4904 10.5421 7.30707 9.8873C8.12373 9.23245 9.28743 8.86751 10.6016 8.86753Z" fill="#333333"/>
<path d="M10.6013 0.0802307C8.66348 0.0802307 7.08301 1.65803 7.08301 3.59371C7.08301 5.52938 8.66348 7.10838 10.6013 7.10838C12.5391 7.10838 14.1207 5.52938 14.1207 3.59371C14.1207 1.65803 12.5391 0.0802307 10.6013 0.0802307ZM10.6013 1.00054C12.0426 1.00054 13.2004 2.15629 13.2004 3.59371C13.2004 5.03113 12.0426 6.18807 10.6013 6.18807C9.15997 6.18807 8.00332 5.03113 8.00332 3.59371C8.00332 2.15629 9.15997 1.00054 10.6013 1.00054Z" fill="#333333"/>
<path d="M4.83048 8.31269C3.44774 8.31265 2.23968 8.69671 1.37332 9.47147C0.506967 10.2462 0.0154471 11.4019 0.015625 12.8028V12.804V12.8053C0.0157478 12.8297 0.0180966 14.139 0.0180966 14.139L0.0273461 15.9341H3.79415H4.3046V15.0138H3.79415H0.940953C0.939726 14.7685 0.939133 14.4548 0.938519 14.1378C0.937292 13.4917 0.936661 12.8614 0.936047 12.8005C0.936483 11.6091 1.32542 10.7498 1.98697 10.1582C2.64855 9.56655 3.61649 9.23352 4.82819 9.23308C4.96512 9.2343 5.37096 9.27404 5.37096 9.27404C5.37096 9.27404 5.83934 8.7149 6.05168 8.44454L5.59751 8.37384C5.34477 8.33451 5.08889 8.3142 4.83299 8.31273H4.83175L4.83048 8.31269Z" fill="#333333"/>
<path d="M4.78414 1.26738C3.03617 1.25511 1.59774 2.66958 1.58601 4.41537C1.57411 6.16116 2.99329 7.59495 4.74126 7.60635C5.49745 7.61064 6.22692 7.34481 6.80144 6.86294C6.87125 6.80447 6.93811 6.7431 7.00283 6.67855L7.2365 6.44375L6.67869 5.70211L6.43194 5.95791C6.38673 6.00478 6.25991 6.11661 6.21063 6.15792C5.80266 6.50011 5.2836 6.6893 4.74628 6.68608C3.49469 6.67792 2.49782 5.66882 2.50632 4.42159C2.51473 3.17435 3.52514 2.17888 4.77673 2.18766C5.15831 2.19011 5.53387 2.28897 5.86645 2.47544L6.26759 2.70106C6.26759 2.70106 6.55532 1.94921 6.59582 1.83303L6.31649 1.6732C5.84832 1.41069 5.32103 1.27124 4.78414 1.26738Z" fill="#333333"/>
</g>
<defs>
<clipPath id="clip0_352_1939">
<rect width="16" height="16" fill="white"/>
</clipPath>
</defs>
</svg>
