<svg width="20" height="20" viewBox="0 0 20 20" fill="none" xmlns="http://www.w3.org/2000/svg">
<path d="M18.069 11.2337C18.069 6.8348 14.4725 3.26754 10.0342 3.26754C5.5958 3.26754 1.99922 6.83478 1.99922 11.2337C1.99922 15.6327 5.5958 19.1999 10.0342 19.1999C14.4725 19.1999 18.069 15.6326 18.069 11.2337ZM18.869 11.2337C18.869 16.076 14.9128 19.9999 10.0342 19.9999C5.15543 19.9999 1.19922 16.076 1.19922 11.2337C1.19922 6.39148 5.15543 2.46754 10.0342 2.46754C14.9128 2.46754 18.869 6.39152 18.869 11.2337ZM6.90414 0.8H13.1641C13.3851 0.8 13.5641 0.620918 13.5641 0.4C13.5641 0.179082 13.3851 0 13.1641 0H6.90414C6.68322 0 6.50414 0.179082 6.50414 0.4C6.50414 0.620918 6.68322 0.8 6.90414 0.8Z" fill="#333333"/>
<path d="M9.63477 0.4V2.9308C9.63477 3.15172 9.81385 3.3308 10.0348 3.3308C10.2557 3.3308 10.4348 3.15172 10.4348 2.9308V0.4C10.4348 0.179082 10.2557 0 10.0348 0C9.81385 0 9.63477 0.179082 9.63477 0.4Z" fill="#333333"/>
<path d="M9.63424 2.73643V4.22603C9.63424 4.44695 9.81332 4.62604 10.0342 4.62604C10.2552 4.62604 10.4342 4.44695 10.4342 4.22603V2.73643C10.4342 2.51551 10.2552 2.33643 10.0342 2.33643C9.81332 2.33643 9.63424 2.51551 9.63424 2.73643ZM9.53424 17.924V19.4136C9.53424 19.6897 9.75811 19.9136 10.0342 19.9136C10.3104 19.9136 10.5342 19.6897 10.5342 19.4136V17.924C10.5342 17.6479 10.3104 17.424 10.0342 17.424C9.75811 17.424 9.53424 17.6479 9.53424 17.924ZM1.86094 11.6337H3.36293C3.58385 11.6337 3.76293 11.4547 3.76293 11.2338C3.76293 11.0128 3.58385 10.8338 3.36293 10.8338H1.86094C1.64002 10.8338 1.46094 11.0128 1.46094 11.2338C1.46094 11.4547 1.64002 11.6337 1.86094 11.6337ZM16.9132 11.6337H18.4152C18.6361 11.6337 18.8152 11.4547 18.8152 11.2338C18.8152 11.0128 18.6361 10.8338 18.4152 10.8338H16.9132C16.6923 10.8338 16.5132 11.0128 16.5132 11.2338C16.5132 11.4547 16.6923 11.6337 16.9132 11.6337ZM10.3075 10.7652L7.00631 7.49084C6.84947 7.33527 6.59619 7.33631 6.44062 7.49314C6.28506 7.64998 6.28609 7.90326 6.44293 8.05883L9.74412 11.3332C9.90096 11.4888 10.1542 11.4878 10.3098 11.3309C10.4654 11.1741 10.4643 10.9208 10.3075 10.7652Z" fill="#333333"/>
</svg>
