<svg  viewBox="0 0 8 8" fill="none" xmlns="http://www.w3.org/2000/svg">
<g clip-path="url(#clip0_2847_5080)">
<path d="M1 2H1.66667H7" stroke="#585563" stroke-width="0.8" stroke-linecap="round" stroke-linejoin="round"/>
<path d="M6.33366 2.00033V6.66699C6.33366 6.8438 6.26342 7.01337 6.1384 7.1384C6.01337 7.26342 5.8438 7.33366 5.66699 7.33366H2.33366C2.15685 7.33366 1.98728 7.26342 1.86225 7.1384C1.73723 7.01337 1.66699 6.8438 1.66699 6.66699V2.00033M2.66699 2.00033V1.33366C2.66699 1.15685 2.73723 0.987279 2.86225 0.862254C2.98728 0.73723 3.15685 0.666992 3.33366 0.666992H4.66699C4.8438 0.666992 5.01337 0.73723 5.1384 0.862254C5.26342 0.987279 5.33366 1.15685 5.33366 1.33366V2.00033" stroke="#585563" stroke-width="0.8" stroke-linecap="round" stroke-linejoin="round"/>
<path d="M3.33301 3.66699V5.66699" stroke="#585563" stroke-width="0.8" stroke-linecap="round" stroke-linejoin="round"/>
<path d="M4.66699 3.66699V5.66699" stroke="#585563" stroke-width="0.8" stroke-linecap="round" stroke-linejoin="round"/>
</g>
<defs>
<clipPath id="clip0_2847_5080">
<rect width="8" height="8" fill="white"/>
</clipPath>
</defs>
</svg>
