<svg viewBox="0 0 16 16" fill="none" xmlns="http://www.w3.org/2000/svg">
<path d="M7.33333 12H8.66667M6.13333 14H9.86667C10.6134 14 10.9868 14 11.272 13.8547C11.5229 13.7269 11.7269 13.5229 11.8547 13.272C12 12.9868 12 12.6134 12 11.8667V4.13333C12 3.3866 12 3.01323 11.8547 2.72801C11.7269 2.47713 11.5229 2.27315 11.272 2.14533C10.9868 2 10.6134 2 9.86667 2H6.13333C5.3866 2 5.01323 2 4.72801 2.14533C4.47713 2.27315 4.27315 2.47713 4.14533 2.72801C4 3.01323 4 3.38659 4 4.13333V11.8667C4 12.6134 4 12.9868 4.14533 13.272C4.27315 13.5229 4.47713 13.7269 4.72801 13.8547C5.01323 14 5.38659 14 6.13333 14Z" stroke="#005F6B" stroke-linecap="round" stroke-linejoin="round"/>
</svg>
