<svg width="24" height="24" viewBox="0 0 24 24" fill="none" xmlns="http://www.w3.org/2000/svg">
<rect width="24" height="24" rx="2" fill="#EEF7F7"/>
<path d="M11.3333 16H12.6667M10.1333 18H13.8667C14.6134 18 14.9868 18 15.272 17.8547C15.5229 17.7269 15.7269 17.5229 15.8547 17.272C16 16.9868 16 16.6134 16 15.8667V8.13333C16 7.3866 16 7.01323 15.8547 6.72801C15.7269 6.47713 15.5229 6.27315 15.272 6.14533C14.9868 6 14.6134 6 13.8667 6H10.1333C9.3866 6 9.01323 6 8.72801 6.14533C8.47713 6.27315 8.27315 6.47713 8.14533 6.72801C8 7.01323 8 7.38659 8 8.13333V15.8667C8 16.6134 8 16.9868 8.14533 17.272C8.27315 17.5229 8.47713 17.7269 8.72801 17.8547C9.01323 18 9.38659 18 10.1333 18Z" stroke="#005F6B" stroke-linecap="round" stroke-linejoin="round"/>
</svg>
