<svg width="24" height="24" viewBox="0 0 24 24" fill="none" xmlns="http://www.w3.org/2000/svg">
<g clip-path="url(#clip0_442_17270)">
<path d="M10.5625 13.6875C10.5625 14.4794 11.2064 15.1239 11.998 15.1239C12.7904 15.1239 13.4355 14.4794 13.4355 13.6875C13.4355 12.8939 12.7904 12.2489 11.998 12.2489C11.2064 12.2489 10.5625 12.894 10.5625 13.6875ZM11.9981 14.4227C11.5935 14.4227 11.2643 14.0925 11.2643 13.6875C11.2643 13.2818 11.5935 12.9507 11.9981 12.9507C12.4037 12.9507 12.7337 13.2818 12.7337 13.6875C12.7337 14.0925 12.4037 14.4227 11.9981 14.4227Z" fill="white"/>
<path d="M11.9987 11.2403L13.0717 8.22153H10.9258L11.9987 11.2403Z" fill="white"/>
<path d="M13.5183 21.0001C13.1802 20.4606 12.7279 18.83 13.6276 18.1188C14.1273 17.7302 14.7028 17.7963 15.2939 18.0139C15.3087 17.2724 15.6884 14.8824 16.3393 14.3515V14.3321L16.3471 14.3446C16.5127 14.2117 16.6094 14.1813 16.8042 14.1028C17.0579 14.0842 17.1301 14.0632 17.3754 14.1277C17.1493 12.6565 17.1698 11.9079 17.6595 11.4657L16.2122 9.09127C15.8749 8.53948 15.3546 8.22153 14.5614 8.22153L13.3074 11.7517C13.9264 12.1723 14.3337 12.8819 14.3337 13.6863C14.3337 14.9765 13.2888 16.0211 11.9981 16.0211C10.7114 16.0211 9.66643 14.9765 9.66643 13.6863C9.66643 12.8819 10.0737 12.1722 10.6924 11.7517L9.43829 8.22153C8.64238 8.22153 8.12167 8.54412 7.78745 9.09127L6.3418 11.4634C6.83303 11.8947 6.8536 12.6433 6.62513 14.1277C6.83109 14.0733 6.91073 14.0827 7.12217 14.0827C7.3502 14.1665 7.47386 14.1953 7.65687 14.3383L7.66079 14.3321V14.3414C8.31557 14.8614 8.68988 17.2179 8.70653 18.0139C9.29062 17.8001 9.87161 17.7286 10.3668 18.1142C11.2726 18.83 10.8203 20.4606 10.4895 20.9892C10.3523 21.2021 10.1639 21.37 9.94511 21.4874H14.0544C13.837 21.3708 13.6512 21.2067 13.5183 21.0001Z" fill="white"/>
<path d="M12.0014 7.53397C13.9779 7.53397 15.5806 5.93136 15.5806 3.95327C15.5806 1.97751 13.9779 0.374847 12.0014 0.374847C10.0237 0.374847 8.42188 1.97756 8.42188 3.95327C8.42188 5.93136 10.0237 7.53397 12.0014 7.53397Z" fill="white"/>
<path d="M6.27124 18.7195C5.52084 17.6632 5.536 17.6804 4.8481 16.5697C4.19289 15.3595 3.48287 13.8959 3.15761 12.5358C2.86106 11.29 2.80011 9.97642 2.85215 8.69707C2.91901 7.40136 3.06315 6.36773 3.20036 5.73813C3.20036 5.73813 2.73479 6.89004 2.51992 8.66289C2.36485 9.95385 2.38116 11.2557 2.58364 12.5296C2.811 13.9699 3.40831 15.6541 4.00324 16.9994C4.62074 18.2283 4.74744 18.3659 5.35095 19.4424C5.7454 20.0571 6.51836 21.0612 6.92447 21.5347C5.75856 21.1569 5.57129 22.9757 6.18492 23.456C6.74916 23.8975 7.78642 23.3744 7.98812 23.0496C8.19641 22.7278 7.94648 22.1961 7.47089 21.8199C7.64611 21.8246 7.8238 21.7647 7.96169 21.6349C8.20962 21.4041 8.27295 20.9502 7.99664 20.6533C6.10919 18.6339 6.77254 19.3786 6.27124 18.7195Z" fill="white"/>
<path d="M3.5652 5.18801C3.92542 5.32018 4.36576 5.02557 4.59506 4.53977C4.79323 4.05164 5.28678 2.64806 4.99687 2.42646C4.66696 2.19169 3.57101 3.38872 3.33944 3.95146C3.0825 4.49706 3.2061 5.05598 3.5652 5.18801Z" fill="white"/>
<path d="M3.76584 6.27236C3.69084 6.31352 3.62277 6.35467 3.57193 6.39907C3.20039 6.68971 3.05272 7.32008 3.25519 7.74048C3.29175 7.81664 3.34341 7.86718 3.39318 7.92083C3.61933 8.15637 3.95282 8.15952 4.22013 7.91613C4.53609 7.59746 5.30125 6.61587 5.17261 6.21794C5.0552 5.85182 4.22942 6.019 3.76584 6.27236Z" fill="white"/>
<path d="M9.79249 18.8516C9.44578 18.5819 8.49838 19.0732 8.23107 19.349C7.96953 19.6273 8.07633 20.1519 8.50932 20.4893C8.94027 20.8281 9.48824 20.8149 9.69614 20.4924C9.89978 20.1676 10.138 19.1253 9.79249 18.8516Z" fill="white"/>
<path d="M4.32664 11.436C4.52408 11.031 5.30793 9.45785 5.10115 9.14475C4.85631 8.76851 3.53465 9.79526 3.28008 10.2056C2.64466 11.0636 3.72115 12.3865 4.32664 11.436Z" fill="white"/>
<path d="M4.00196 13.8632C3.81348 14.3553 4.05478 15.0329 4.51183 15.2949C4.96883 15.5591 5.42156 15.3252 5.55718 14.8519C5.63532 14.3388 6.02546 12.4105 5.70722 12.1478C5.32013 11.8152 4.15079 13.3231 4.00196 13.8632Z" fill="white"/>
<path d="M6.80584 18.8673C7.40591 18.994 7.80418 18.5712 7.77392 18.0069C7.6522 17.4139 7.42953 15.208 7.01296 15.0386C6.48097 14.8016 5.69009 16.8216 5.72626 17.4729C5.69164 18.0768 6.20698 18.7437 6.80584 18.8673Z" fill="white"/>
<path d="M2.36264 7.55205C2.69763 7.20457 2.84065 6.59757 2.69681 6.13278C2.53752 5.68513 1.93048 4.62729 1.52979 4.94988C1.09724 5.29344 1.1781 6.92012 1.39728 7.37489C1.59089 7.84738 2.02804 7.89638 2.36264 7.55205Z" fill="white"/>
<path d="M2.08509 11.6642C2.31013 11.2367 2.27706 10.6126 2.00777 10.2077C1.71122 9.84782 0.594797 8.31594 0.295925 8.71227C-0.0662263 9.17237 0.747114 11.4092 1.1097 11.7645C1.42716 12.1648 1.86083 12.0909 2.08509 11.6642Z" fill="white"/>
<path d="M1.94003 16.3835C2.4328 16.7302 2.88549 16.4971 2.98581 15.9413C3.08569 15.384 2.84202 14.6962 2.41223 14.3293C1.9622 14.0254 0.239075 12.6372 0.0299663 13.1767C-0.24126 13.8163 1.40372 16.1099 1.94003 16.3835Z" fill="white"/>
<path d="M4.29512 18.4339C3.69355 18.2621 1.33966 17.2743 1.29342 17.9396C1.20018 18.7518 3.84083 20.7655 4.54809 20.8713C5.22543 21.0827 5.6238 20.6591 5.51733 20.0117C5.40965 19.3619 4.89315 18.6943 4.29512 18.4339Z" fill="white"/>
<path d="M17.075 21.5347C18.293 20.1154 19.1219 18.7398 19.9963 16.9994C20.5792 15.682 21.1831 14.004 21.416 12.5296C21.6044 11.3443 21.6153 10.2407 21.5399 9.27768C21.4311 7.86548 21.0888 6.45469 20.7992 5.73813C20.9729 6.53399 21.1498 7.94086 21.1626 9.29167C21.175 10.3682 21.0911 11.489 20.842 12.5367C20.4903 14.0118 19.7919 15.386 19.1515 16.5697C17.5632 19.133 17.3643 19.1969 16.0033 20.6533C15.7266 20.9511 15.7903 21.4049 16.0379 21.6349C16.1759 21.7648 16.3534 21.8246 16.5287 21.8199C16.053 22.1961 15.8031 22.7278 16.0115 23.0496C16.2132 23.3744 17.2504 23.8975 17.8146 23.456C18.3781 23.0145 18.1057 21.8945 17.8403 21.6202C17.6743 21.4437 17.3848 21.4344 17.075 21.5347Z" fill="white"/>
<path d="M20.4349 5.18801C20.7939 5.05593 20.9175 4.49706 20.6606 3.95146C20.4289 3.38872 19.3331 2.19169 19.0031 2.42646C18.7133 2.64806 19.2068 4.05164 19.405 4.53977C19.6343 5.02557 20.0746 5.32023 20.4349 5.18801Z" fill="white"/>
<path d="M20.7464 7.74075C20.9488 7.32031 20.8011 6.68998 20.4297 6.39934C20.0822 6.10158 18.9684 5.78451 18.8289 6.21822C18.7002 6.61615 19.4654 7.59773 19.7814 7.91641C20.1363 8.239 20.573 8.10218 20.7464 7.74075Z" fill="white"/>
<path d="M15.7696 19.349C15.5022 19.0732 14.5547 18.5819 14.2081 18.8516C13.863 19.1252 14.1008 20.1676 14.3045 20.4925C14.5124 20.815 15.0603 20.8282 15.4913 20.4893C15.9242 20.1519 16.0311 19.6273 15.7696 19.349Z" fill="white"/>
<path d="M18.8977 9.14475C18.691 9.4579 19.4748 11.031 19.6723 11.436C19.9038 11.7997 20.3375 11.8736 20.648 11.5347C20.9411 11.2207 20.971 10.546 20.7188 10.2056C20.4642 9.79526 19.1425 8.76851 18.8977 9.14475Z" fill="white"/>
<path d="M19.4888 15.2949C19.9455 15.0329 20.1868 14.3553 19.9983 13.8632C19.8494 13.3231 18.6801 11.8152 18.2931 12.1478C17.9748 12.4106 18.3649 14.3389 18.4431 14.8519C18.5787 15.3252 19.0314 15.5591 19.4888 15.2949Z" fill="white"/>
<path d="M16.9871 15.0386C16.5705 15.208 16.3478 17.4139 16.2262 18.0069C16.1959 18.5712 16.5942 18.994 17.1943 18.8673C17.7931 18.7437 18.3085 18.0768 18.2738 17.4729C18.31 16.8216 17.5191 14.8016 16.9871 15.0386Z" fill="white"/>
<path d="M22.6033 7.42256C22.8224 6.96779 22.9033 5.34111 22.4708 4.99755C22.0701 4.67495 21.463 5.7328 21.3037 6.18045C21.1599 6.64529 21.303 7.25228 21.6379 7.59972C21.9726 7.94405 22.4097 7.89505 22.6033 7.42256Z" fill="white"/>
<path d="M21.9166 11.6642C22.1409 12.0908 22.5745 12.1648 22.8921 11.7645C23.2546 11.4092 24.068 9.17237 23.7058 8.71227C23.407 8.31594 22.2904 9.84782 21.994 10.2077C21.7246 10.6127 21.6916 11.2367 21.9166 11.6642Z" fill="white"/>
<path d="M21.0145 15.9413C21.1147 16.4971 21.5675 16.7302 22.0603 16.3836C22.5965 16.1101 24.2415 13.8165 23.9703 13.1768C23.7613 12.6373 22.038 14.0255 21.5881 14.3294C21.1583 14.6963 20.9146 15.3841 21.0145 15.9413Z" fill="white"/>
<path d="M19.7042 18.4337C19.1061 18.6941 18.5896 19.3617 18.4819 20.0115C18.3755 20.6589 18.7738 21.0825 19.4512 20.8711C20.1584 20.7653 22.7992 18.7517 22.7059 17.9394C22.6596 17.2741 20.3057 18.2619 19.7042 18.4337Z" fill="white"/>
</g>
<defs>
<clipPath id="clip0_442_17270">
<rect width="24" height="24" fill="white"/>
</clipPath>
</defs>
</svg>
