<svg width="12" height="12" viewBox="0 0 12 12" fill="none" xmlns="http://www.w3.org/2000/svg">
<g clip-path="url(#clip0_54_233)">
<path d="M8.5 1.5C8.63132 1.36868 8.78722 1.26451 8.9588 1.19344C9.13038 1.12236 9.31428 1.08578 9.5 1.08578C9.68572 1.08578 9.86962 1.12236 10.0412 1.19344C10.2128 1.26451 10.3687 1.36868 10.5 1.5C10.6313 1.63132 10.7355 1.78722 10.8066 1.9588C10.8776 2.13038 10.9142 2.31428 10.9142 2.5C10.9142 2.68572 10.8776 2.86961 10.8066 3.04119C10.7355 3.21277 10.6313 3.36868 10.5 3.5L3.75 10.25L1 11L1.75 8.25L8.5 1.5Z" stroke="#5E6366" stroke-width="1.2" stroke-linecap="round" stroke-linejoin="round"/>
</g>
<defs>
<clipPath id="clip0_54_233">
<rect width="12" height="12" fill="white"/>
</clipPath>
</defs>
</svg>
