<svg width="217" height="304" viewBox="0 0 217 304" fill="none"
  xmlns="http://www.w3.org/2000/svg">
  <path d="M125.63 249.563C125.63 249.563 127.556 261.062 125.171 271.281L158.855 289.948C158.855 289.948 160.469 282.909 156.113 275.577C151.757 268.244 149.613 262.499 150.266 254.652L125.63 249.563Z" fill="#0041B9"/>
  <path d="M144.299 266.862L150.727 267.864" stroke="white" stroke-width="0.636429" stroke-miterlimit="10" stroke-linecap="round"/>
  <path d="M170.863 234.471C170.863 234.471 179.523 247.461 186.545 248.478L209.847 222.891C209.847 222.891 206.308 217.121 196.316 221.863C196.316 221.863 193.859 223.369 189.947 222.163C188.092 221.594 186.116 220.257 184.071 217.682L170.863 234.471Z" fill="#0041B9"/>
  <path d="M190.275 229.634L191.939 223.342" stroke="white" stroke-width="0.636429" stroke-miterlimit="10" stroke-linecap="round"/>
  <path d="M192.388 171.138L165.787 162.43C163.96 161.831 161.994 162.828 161.395 164.655L152.687 191.256C152.088 193.083 153.085 195.049 154.912 195.647L181.513 204.356C183.34 204.954 185.306 203.958 185.904 202.131L194.613 175.53C195.211 173.703 194.215 171.737 192.388 171.138Z" stroke="#0057FA" stroke-width="0.636429" stroke-miterlimit="10"/>
  <path d="M160.501 138.761L138.202 144.713C138.023 144.761 137.836 144.767 137.654 144.734C137.472 144.7 137.3 144.626 137.15 144.518C137 144.41 136.875 144.27 136.786 144.108C136.696 143.946 136.644 143.766 136.632 143.582L138.547 127.947C138.614 127.401 138.846 126.889 139.211 126.477C139.576 126.066 140.057 125.775 140.591 125.644L163.295 120.051C163.468 120.002 163.651 119.998 163.826 120.04C164.001 120.081 164.163 120.167 164.296 120.288C164.429 120.409 164.529 120.562 164.586 120.733C164.644 120.904 164.657 121.086 164.624 121.263L161.627 137.547C161.574 137.835 161.44 138.103 161.24 138.318C161.041 138.533 160.785 138.687 160.501 138.761Z" fill="#A9D500"/>
  <path d="M160.733 100.202C165.945 99.6339 169.709 94.9485 169.141 89.7369C168.573 84.5253 163.887 80.7611 158.676 81.3293C153.464 81.8975 149.7 86.5829 150.268 91.7945C150.836 97.0061 155.522 100.77 160.733 100.202Z" fill="#0041B9"/>
  <path d="M162.74 92.0546L157.719 94.7083C157.616 94.7642 157.5 94.7908 157.384 94.7852C157.267 94.7796 157.154 94.742 157.057 94.6765C156.961 94.611 156.884 94.5202 156.835 94.4139C156.787 94.3077 156.768 94.1901 156.782 94.0742L157.452 87.7719C157.461 87.655 157.503 87.5428 157.572 87.4479C157.641 87.353 157.735 87.279 157.843 87.234C157.951 87.1891 158.07 87.175 158.186 87.1933C158.302 87.2116 158.41 87.2615 158.5 87.3377L162.851 90.9893C162.934 91.0559 162.999 91.1424 163.041 91.2408C163.082 91.3391 163.097 91.4463 163.086 91.5523C163.075 91.6583 163.038 91.7599 162.977 91.8477C162.917 91.9354 162.835 92.0066 162.74 92.0546Z" fill="white"/>
  <path d="M49.892 86.7854C43.3187 95.5347 37.9655 105.137 33.9795 115.329C32.15 119.914 30.6764 124.634 29.5719 129.445C28.5136 134.025 28.0412 138.72 28.166 143.418C28.3266 147.894 29.1664 152.426 30.9892 156.538C32.6713 160.339 35.1212 163.751 38.185 166.56C41.1751 169.346 44.8098 171.348 48.7635 172.384C50.7003 172.868 52.6981 173.064 54.692 172.964C55.5327 172.922 56.3703 172.863 57.2141 172.84C59.1797 172.816 61.1428 172.693 63.096 172.471C65.5353 172.194 67.9222 171.569 70.1839 170.614C72.7338 169.514 75.011 167.868 76.8544 165.791C79.1898 163.131 80.7144 159.846 81.6481 156.455C82.6069 152.992 83.2627 148.831 80.6844 145.888C78.2642 143.134 74.2027 142.374 70.7516 143.189C66.0763 144.297 62.5934 147.811 60.1711 151.802C58.0834 155.144 56.6862 158.869 56.0619 162.76C55.5269 166.25 55.5341 170.169 57.2113 173.376C58.1526 175.187 59.743 176.584 61.2757 177.893C63.6837 179.938 66.3153 181.703 69.1203 183.156C73.105 185.226 77.4125 186.604 81.8589 187.232C84.4096 187.576 86.9874 187.676 89.5571 187.531C90.0179 187.508 89.4502 186.822 89.4502 186.822C84.5159 187.095 79.5748 186.424 74.8923 184.844C69.2448 182.905 64.0941 179.746 59.8068 175.59C59.0217 174.851 58.3579 173.994 57.8397 173.049C57.095 171.522 56.6543 169.864 56.542 168.169C56.2314 164.568 56.9094 160.836 58.1528 157.458C58.8725 155.539 59.7852 153.699 60.8768 151.964C62.1301 149.864 63.7379 147.997 65.6288 146.446C68.8759 143.886 73.378 142.661 77.3104 144.339C78.6263 144.872 79.7656 145.764 80.5978 146.914C81.5476 148.288 81.8608 149.992 81.812 151.642C81.7346 153.712 81.178 155.791 80.5204 157.745C79.975 159.413 79.2473 161.017 78.3507 162.526C76.8746 165.003 74.8387 167.1 72.4063 168.648C70.304 169.933 67.9932 170.84 65.5782 171.329C63.4869 171.752 61.3633 171.994 59.2306 172.055C58.3792 172.088 57.529 172.102 56.6811 172.127C55.6879 172.156 54.6945 172.264 53.7018 172.265C49.7618 172.222 45.9113 171.084 42.5813 168.978C39.1628 166.828 36.246 163.969 34.0285 160.593C31.7148 157.051 30.1595 153.069 29.4607 148.896C28.7101 144.415 28.6423 139.847 29.2596 135.346C29.8778 130.789 30.9199 126.3 32.3724 121.937C33.9905 116.973 35.9355 112.123 38.1945 107.417C40.4975 102.612 43.1183 97.9659 46.0394 93.5098C47.4464 91.3646 48.9214 89.2668 50.4643 87.2163C50.512 87.14 50.5293 87.0486 50.5129 86.9602C50.4965 86.8718 50.4475 86.7927 50.3757 86.7386C50.3038 86.6845 50.2143 86.6593 50.1247 86.6679C50.0352 86.6766 49.9522 86.7185 49.892 86.7854Z" fill="#0057FA"/>
  <path d="M122.478 78.7587L129.138 75.4909" stroke="#0057FA" stroke-width="0.636429" stroke-miterlimit="10" stroke-linecap="round"/>
  <path d="M122.143 81.8809L129.563 81.9426" stroke="#0057FA" stroke-width="0.636429" stroke-miterlimit="10" stroke-linecap="round"/>
  <path d="M185.961 216.372C170.272 193.755 151.665 179.427 142.332 172.25C140.896 171.145 139.131 169.785 138.519 169.25C134.039 165.708 132.81 158.285 132.81 158.285L113.434 166.677C113.43 166.657 113.428 166.635 113.427 166.614C113.43 166.64 113.432 166.659 113.418 166.679L113.266 166.744L85.7033 162.707C85.3279 165.136 82.6729 186.849 98.6186 201.455C102.029 204.582 108.047 212.857 113.797 224.294C119.517 235.652 122.691 242.915 123.558 250.874L155.305 257.499C153.64 242.226 143.021 220.077 138.818 211.717C136.139 206.357 133.163 201.151 129.903 196.124C140.152 204.219 156.064 218.223 167.834 240.179C167.845 240.165 187.333 218.351 185.961 216.372Z" fill="#001D53"/>
  <path d="M124.616 244.411L148.144 249.586" stroke="#E6E6E6" stroke-width="0.636429" stroke-miterlimit="10" stroke-linecap="round"/>
  <path d="M182.719 211.863C182.719 211.863 175.728 223.752 169.802 229.638" stroke="#E6E6E6" stroke-width="0.636429" stroke-miterlimit="10" stroke-linecap="round"/>
  <path d="M128.974 194.685C128.974 194.685 123.977 187.282 120.771 184.037L122.939 179.578" stroke="#E6E6E6" stroke-width="0.636429" stroke-miterlimit="10" stroke-linecap="round"/>
  <path d="M84.202 61.3817L52.444 70.7482C50.9918 71.176 49.4338 71.0619 48.0595 70.4271C46.6852 69.7923 45.5881 68.68 44.9724 67.297L35.0295 44.9135C34.7015 44.1797 34.5348 43.384 34.5407 42.5802C34.5466 41.7765 34.725 40.9833 35.0637 40.2544C35.4025 39.5255 35.8938 38.8778 36.5043 38.355C37.1149 37.8323 37.8306 37.4467 38.603 37.2243L80.1797 25.1829C80.9049 24.9737 81.6668 24.9243 82.4129 25.0381C83.159 25.1518 83.8716 25.4261 84.5014 25.8419C85.1312 26.2577 85.6634 26.8052 86.0612 27.4466C86.459 28.088 86.7129 28.808 86.8055 29.5571L89.7269 52.9418C89.9546 54.775 89.5243 56.6296 88.5125 58.1751C87.5008 59.7207 85.9732 60.857 84.202 61.3817Z" fill="#A9D500"/>
  <path d="M52.7895 63.6616L50.4696 66.8365C50.4018 66.9313 50.3094 67.0057 50.2023 67.0516C50.0952 67.0974 49.9775 67.113 49.8622 67.0966C49.7468 67.0802 49.6382 67.0325 49.5481 66.9586C49.458 66.8847 49.3899 66.7875 49.3513 66.6776L47.5629 62.6275C47.5278 62.5483 47.5147 62.461 47.5251 62.375C47.5355 62.289 47.5689 62.2074 47.6219 62.1388C47.6749 62.0703 47.7454 62.0173 47.8261 61.9855C47.9067 61.9538 47.9944 61.9444 48.0799 61.9585L52.4245 62.6605C52.5276 62.6845 52.6229 62.7339 52.7021 62.804C52.7812 62.8742 52.8417 62.963 52.8779 63.0623C52.9141 63.1617 52.925 63.2686 52.9095 63.3732C52.8941 63.4778 52.8528 63.577 52.7895 63.6616Z" fill="white"/>
  <path d="M70.0132 58.5386L66.7132 59.5296L55.9111 62.7719C55.831 62.796 55.747 62.804 55.6638 62.7956C55.5806 62.7872 55.4999 62.7625 55.4262 62.7228C55.3526 62.6832 55.2875 62.6294 55.2346 62.5646C55.1818 62.4998 55.1422 62.4253 55.1182 62.3452C55.0705 62.1839 55.0885 62.0104 55.1683 61.8624C55.2482 61.7144 55.3833 61.604 55.5443 61.5554L66.3822 58.2981L69.7587 57.2847C69.975 57.6648 70.0642 58.1042 70.0132 58.5386Z" fill="white"/>
  <path d="M69.9786 58.7427C69.8866 59.2344 69.6053 59.6704 69.1951 59.9569C68.7849 60.2433 68.2787 60.3573 67.7854 60.2744C67.3438 60.1771 66.9585 59.9094 66.7133 59.5296C66.4708 59.1672 66.3565 58.7342 66.3885 58.2994C66.4006 58.0259 66.4695 57.7579 66.591 57.5126C66.7124 57.2672 66.8836 57.0498 67.0938 56.8744C67.3039 56.6989 67.5483 56.5691 67.8114 56.4934C68.0745 56.4176 68.3505 56.3976 68.6218 56.4345C68.8613 56.4884 69.0869 56.5921 69.2838 56.7388C69.4808 56.8855 69.6447 57.0719 69.765 57.286C69.9789 57.6665 70.0658 58.1052 70.0133 58.5385C70.0053 58.6052 69.9935 58.6743 69.9786 58.7427Z" fill="white"/>
  <path d="M85.3907 53.9188L70.0125 58.5386C70.065 58.1053 69.978 57.6665 69.7642 57.286L85.0239 52.7023C85.1053 52.6724 85.192 52.6594 85.2786 52.6642C85.3653 52.669 85.45 52.6915 85.5276 52.7302C85.6053 52.7689 85.6741 52.8231 85.7301 52.8895C85.786 52.9558 85.8277 53.0329 85.8528 53.1159C85.8778 53.199 85.8856 53.2863 85.8757 53.3725C85.8658 53.4587 85.8383 53.5419 85.7951 53.6171C85.7518 53.6923 85.6936 53.7579 85.6241 53.8097C85.5546 53.8616 85.4751 53.8987 85.3907 53.9188Z" fill="#CBE6FF"/>
  <path d="M113.151 106.744C113.151 106.744 117.428 108.896 131.772 131.298C134.53 135.604 138.27 138.931 150.489 139.555L140.431 154.025C140.431 154.025 121.543 150.688 119.014 142.026C116.485 133.365 113.151 106.744 113.151 106.744Z" fill="#0057FA"/>
  <path d="M125.14 128.666C123.014 118.886 118.011 109.546 111.451 105.575C107.112 102.95 103.124 102.831 97.7427 103.418C84.507 104.861 74.1892 120.912 72.7232 137.294C72.2147 140.26 72.314 143.299 73.0151 146.225C74.4853 153.603 79.2585 158.893 85.3599 162.008C101.441 171.218 126.261 161.934 126.261 161.934C128.286 147.309 126.921 136.081 125.14 128.666Z" fill="#0057FA"/>
  <path d="M114.934 113.502C114.934 113.502 124.61 125.911 122.012 153.998" stroke="#E6E6E6" stroke-width="0.636429" stroke-miterlimit="10" stroke-linecap="round"/>
  <path d="M156.408 132.793C156.626 132.782 156.843 132.822 157.042 132.91C157.241 132.998 157.416 133.132 157.555 133.3C157.693 133.468 157.789 133.667 157.837 133.879C157.885 134.091 157.882 134.312 157.829 134.523L153.087 157.466C153.012 157.873 152.826 158.251 152.551 158.56C152.276 158.868 151.922 159.096 151.527 159.218L121.436 168.007C121.325 168.039 121.211 168.06 121.097 168.07C120.876 168.083 120.655 168.05 120.448 167.974C120.24 167.899 120.05 167.781 119.89 167.629C119.729 167.477 119.602 167.294 119.514 167.091C119.427 166.888 119.383 166.669 119.383 166.448L122.667 144.423C122.774 143.66 123.1 142.945 123.605 142.364C124.109 141.782 124.771 141.359 125.511 141.145L156.106 132.864C156.203 132.828 156.305 132.804 156.408 132.793Z" fill="#A9D500"/>
  <path d="M155.616 132.335C155.432 132.26 155.232 132.229 155.033 132.245C154.927 132.252 154.822 132.272 154.72 132.304L124.125 140.586C123.385 140.799 122.723 141.223 122.219 141.804C121.714 142.386 121.389 143.101 121.281 143.863L118.001 165.888C118.003 166.213 118.101 166.53 118.282 166.8C118.464 167.069 118.721 167.279 119.021 167.403L120.396 167.951C120.096 167.827 119.839 167.617 119.657 167.348C119.476 167.078 119.378 166.761 119.376 166.436L122.66 144.411C122.767 143.648 123.093 142.933 123.597 142.352C124.102 141.77 124.764 141.347 125.503 141.133L156.098 132.852C156.39 132.76 156.703 132.77 156.988 132.88L155.616 132.335Z" fill="#FFB444"/>
  <path d="M102.546 151.869C102.546 151.869 108.627 147.224 113.18 145.06C117.733 142.896 121.998 141.557 122.945 142.02C123.641 142.357 124.402 144.88 120.75 148.607C120.75 148.607 124.525 149.499 127.958 149.102C131.217 148.721 133.851 148.43 134.883 151.228C135.051 151.683 134.965 152.451 134.673 153.411C134.095 155.122 133.305 156.753 132.322 158.268C131.507 159.561 130.598 160.794 129.602 161.954C126.675 165.346 122.888 168.128 119.101 167.833C113.975 167.426 108.906 166.477 103.981 165C103.981 165 96.416 163.699 102.546 151.869Z" fill="#F3ABAA"/>
  <path d="M129.592 154.849C128.719 154.948 127.84 154.99 126.962 154.976C126.919 154.974 126.878 154.965 126.839 154.948C126.801 154.931 126.766 154.906 126.737 154.876C126.678 154.814 126.647 154.731 126.649 154.646C126.651 154.561 126.687 154.48 126.749 154.422C126.81 154.363 126.893 154.331 126.978 154.334C127.016 154.329 130.83 154.432 133.743 153.202C133.782 153.186 133.823 153.178 133.865 153.177C133.907 153.177 133.948 153.185 133.987 153.201C134.026 153.217 134.061 153.24 134.091 153.27C134.121 153.299 134.144 153.334 134.16 153.373C134.177 153.411 134.185 153.453 134.185 153.495C134.185 153.536 134.177 153.578 134.161 153.617C134.146 153.655 134.122 153.691 134.093 153.72C134.063 153.75 134.028 153.774 133.99 153.79C132.581 154.347 131.1 154.703 129.592 154.849Z" fill="#0041B9"/>
  <path d="M129.582 158.957C128.784 159.044 127.762 159.12 126.476 159.158C126.434 159.159 126.392 159.152 126.353 159.137C126.314 159.122 126.278 159.1 126.248 159.071C126.217 159.042 126.192 159.008 126.175 158.969C126.158 158.931 126.149 158.89 126.148 158.848C126.146 158.764 126.178 158.682 126.236 158.621C126.294 158.56 126.374 158.525 126.458 158.523C130.169 158.413 131.659 157.956 131.675 157.954C131.755 157.929 131.842 157.937 131.917 157.977C131.991 158.016 132.047 158.083 132.072 158.163C132.097 158.243 132.089 158.33 132.05 158.404C132.012 158.479 131.945 158.535 131.866 158.56C131.117 158.76 130.353 158.893 129.582 158.957Z" fill="#0041B9"/>
  <path d="M125.047 162.659L124.215 162.749C124.131 162.758 124.047 162.734 123.981 162.681C123.915 162.628 123.873 162.551 123.864 162.467C123.855 162.384 123.879 162.299 123.932 162.234C123.985 162.168 124.062 162.126 124.146 162.117C127.632 161.801 128.732 161.341 128.741 161.337C128.818 161.303 128.906 161.301 128.984 161.332C129.063 161.363 129.126 161.424 129.16 161.501C129.194 161.578 129.196 161.666 129.165 161.745C129.134 161.824 129.074 161.887 128.996 161.921C128.953 161.932 127.995 162.337 125.047 162.659Z" fill="#0041B9"/>
  <path d="M122.531 166.006C121.999 166.064 121.392 166.104 120.697 166.126C120.655 166.127 120.613 166.12 120.574 166.106C120.535 166.091 120.499 166.069 120.468 166.04C120.407 165.982 120.37 165.902 120.367 165.818C120.364 165.733 120.395 165.651 120.453 165.589C120.511 165.527 120.591 165.491 120.675 165.488C124.297 165.381 125.367 164.656 125.384 164.635C125.452 164.586 125.537 164.566 125.62 164.579C125.703 164.592 125.777 164.638 125.827 164.705C125.877 164.773 125.898 164.857 125.886 164.94C125.874 165.022 125.83 165.097 125.763 165.148C125.722 165.178 124.951 165.742 122.531 166.006Z" fill="#0041B9"/>
  <path d="M83.097 111.858C83.097 111.858 69.4327 124.315 67.6285 149.309C67.6285 149.309 67.1757 156.049 71.4808 158.925C75.786 161.8 89.8059 167.227 106.738 165.781C106.738 165.781 98.6568 162.648 102.546 151.869C102.546 151.869 91.8955 149.253 88.6943 145.611C85.4931 141.968 92.4698 129.565 92.4698 129.565C92.4698 129.565 99.4624 95.346 83.097 111.858Z" fill="#0057FA"/>
  <path d="M89.5998 128.812C89.5998 128.812 85.5326 143.18 89.7964 146.527C91.3544 147.753 94.1852 149.73 101.791 151.673" stroke="#E6E6E6" stroke-width="0.636429" stroke-miterlimit="10" stroke-linecap="round"/>
  <path d="M140.602 147.55C142.159 147.153 143.567 148.322 143.732 150.157C143.897 151.993 142.754 153.811 141.187 154.209C139.62 154.607 138.222 153.434 138.059 151.595C137.897 149.756 139.038 147.948 140.602 147.55Z" fill="white"/>
  <path d="M157.702 135.312C157.702 135.312 169.01 144.223 156.011 157.144C156.011 157.144 149.704 161.564 145.855 157.384C145.855 157.384 143.479 152.886 147.466 147.967C148.094 146.995 148.973 146.209 150.009 145.693C151.594 144.992 155.399 142.544 156.279 140.934C157.16 139.324 157.702 135.312 157.702 135.312Z" fill="#F3ABAA"/>
  <path d="M149.114 150.313C148.553 150.402 147.977 150.315 147.467 150.064C147.229 149.935 147.023 149.752 146.867 149.53C146.71 149.308 146.607 149.054 146.566 148.786C146.557 148.702 146.581 148.618 146.634 148.552C146.687 148.486 146.764 148.444 146.848 148.435C146.932 148.426 147.016 148.45 147.082 148.503C147.147 148.556 147.19 148.633 147.199 148.717C147.229 148.885 147.298 149.044 147.399 149.182C147.501 149.319 147.633 149.432 147.785 149.511C148.329 149.803 149.476 149.909 151.831 148.749C154.381 147.476 154.82 147.015 154.86 146.966C154.904 146.9 154.971 146.853 155.047 146.834C155.124 146.815 155.205 146.826 155.274 146.863C155.349 146.903 155.404 146.971 155.429 147.051C155.453 147.132 155.444 147.219 155.405 147.294C155.323 147.453 154.837 147.964 152.104 149.318C151.171 149.817 150.16 150.154 149.114 150.313Z" fill="#0041B9"/>
  <path d="M148.519 153.662C145.988 153.938 145.142 152.049 145.139 152.027C145.106 151.949 145.104 151.862 145.136 151.783C145.167 151.705 145.228 151.642 145.305 151.609C145.382 151.575 145.47 151.574 145.548 151.605C145.627 151.636 145.69 151.697 145.723 151.774C145.762 151.863 146.685 153.84 149.781 152.702C152.217 151.796 152.843 151.427 152.843 151.427C152.914 151.385 152.998 151.371 153.079 151.39C153.159 151.409 153.229 151.459 153.274 151.528C153.319 151.598 153.334 151.682 153.318 151.763C153.302 151.844 153.254 151.916 153.186 151.963C153.161 151.965 152.547 152.352 150.006 153.298C149.527 153.48 149.027 153.602 148.519 153.662Z" fill="#0041B9"/>
  <path d="M148.978 157.095C148.301 157.178 147.614 157.124 146.958 156.937C146.302 156.749 145.69 156.432 145.159 156.003C145.129 155.975 145.104 155.94 145.087 155.902C145.07 155.864 145.06 155.823 145.059 155.781C145.058 155.74 145.065 155.698 145.079 155.659C145.094 155.62 145.117 155.584 145.145 155.554C145.203 155.493 145.282 155.458 145.366 155.455C145.449 155.453 145.531 155.483 145.592 155.54C145.684 155.623 147.829 157.537 151.165 155.714C151.239 155.673 151.326 155.663 151.407 155.687C151.488 155.71 151.557 155.765 151.598 155.839C151.638 155.913 151.648 156.001 151.624 156.082C151.601 156.163 151.546 156.231 151.472 156.272C150.703 156.709 149.856 156.988 148.978 157.095Z" fill="#0041B9"/>
  <path d="M109.34 86.3019C108.117 90.0331 108.785 93.6031 110.833 94.2729C112.881 94.9426 116.165 92.2639 117.327 88.5104C118.66 84.2039 117.304 81.426 115.256 80.7562C113.208 80.0864 110.553 82.5686 109.34 86.3019Z" fill="#FFB444"/>
  <path d="M117.332 88.5115C118.389 85.283 117.815 82.1972 116.049 81.6193C114.284 81.0413 111.996 83.19 110.939 86.4185C109.882 89.647 110.456 92.7328 112.221 93.3108C113.987 93.8888 116.275 91.7401 117.332 88.5115Z" fill="#A9D500"/>
  <path d="M106.885 95.9037L94.9661 91.6015L91.8571 102.721L91.0942 105.442C95.7474 108.456 101.628 107.61 104.652 106.333C106.463 105.566 106.619 104.476 106.619 104.476C105.759 102.336 106.885 95.9037 106.885 95.9037Z" fill="#F3ABAA"/>
  <path d="M106.412 99.6333C106.584 97.6587 106.885 95.9037 106.885 95.9037L94.9663 91.6015C94.9663 91.6015 96.2971 98.6106 106.412 99.6333Z" fill="#001D53"/>
  <path d="M105.389 96.6877C112.039 95.9627 116.803 89.6319 116.031 82.5474C115.258 75.463 109.242 70.3076 102.592 71.0325C95.9427 71.7575 91.1784 78.0883 91.9508 85.1728C92.7232 92.2573 98.7398 97.4127 105.389 96.6877Z" fill="#F3ABAA"/>
  <path d="M92.08 80.9846C93.4197 75.6562 97.3125 71.6082 102.317 71.0626C109.061 70.3273 115.233 76.2292 116.107 84.2453C116.153 84.6692 116.199 85.0899 116.201 85.5155L116.779 85.6221C116.831 84.629 116.802 83.6333 116.694 82.6448C115.729 73.7873 108.72 67.2883 101.027 68.1271C94.9153 68.7934 90.7421 71.6491 89.9246 80.5922L92.08 80.9846Z" fill="#A9D500"/>
  <path d="M120.258 71.7601C119.853 68.04 116.405 65.3653 112.564 65.784C111.878 65.8595 111.206 66.0319 110.568 66.2961C108.84 64.9934 106.745 64.2687 104.581 64.2249C100.279 64.169 94.5778 66.6919 92.9392 75.2092C92.789 76.7775 92.8537 78.3589 93.1316 79.9097C93.1316 79.9097 96.2482 81.308 98.7276 77.9776C101.146 74.7306 103.752 74.3248 105.281 75.2272C107.335 76.4533 108.655 79.3407 114.023 79.2516C114.273 79.2766 114.525 79.2414 114.758 79.1491C115.672 81.0654 116.121 83.1705 116.068 85.2931C119.249 81.614 119.465 77.73 118.947 76.4646C119.968 75.1214 120.438 73.4382 120.258 71.7601Z" fill="#001D53"/>
  <path d="M96.6254 83.7126C97.2781 87.585 96.0833 91.0123 93.9611 91.3654C91.8389 91.7184 88.9873 88.5818 88.3976 84.6993C87.7191 80.2374 89.475 77.6996 91.5997 77.3399C93.7243 76.9803 95.9727 79.8401 96.6254 83.7126Z" fill="#0057FA"/>
  <path d="M92.7353 90.2172C94.5672 89.909 95.5952 86.9433 95.0315 83.5933C94.4677 80.2432 92.5257 77.7774 90.6938 78.0856C88.862 78.3939 87.834 81.3596 88.3977 84.7096C88.9615 88.0597 90.9035 90.5255 92.7353 90.2172Z" fill="#A9D500"/>
  <path d="M106.459 83.557C106.67 82.6318 106.455 81.7936 105.978 81.685C105.502 81.5763 104.945 82.2383 104.734 83.1636C104.523 84.0889 104.738 84.927 105.214 85.0356C105.69 85.1443 106.248 84.4823 106.459 83.557Z" fill="#001D53"/>
  <path d="M113.841 84.6903C114.054 83.7601 113.839 82.9169 113.36 82.8069C112.882 82.6969 112.32 83.3618 112.107 84.292C111.893 85.2223 112.108 86.0655 112.587 86.1755C113.066 86.2854 113.627 85.6205 113.841 84.6903Z" fill="#001D53"/>
  <path d="M100.193 88.0962C99.685 88.9902 100.484 91.0669 102.843 90.9442" stroke="#001D53" stroke-width="0.636429" stroke-miterlimit="10" stroke-linecap="round"/>
  <path d="M109.287 85.0209L108.873 88.6448C108.86 88.7494 108.827 88.8503 108.774 88.9413C108.721 89.0324 108.65 89.1116 108.565 89.174C108.481 89.2363 108.384 89.2806 108.281 89.304C108.179 89.3274 108.072 89.3294 107.969 89.3099L107.119 89.1497" stroke="#001D53" stroke-width="0.636429" stroke-miterlimit="10" stroke-linecap="round"/>
</svg>
