<svg viewBox="0 0 16 16" fill="none" xmlns="http://www.w3.org/2000/svg" stroke-width="1" stroke="currentColor" class="size-6">
<g clip-path="url(#clip0_1111_26171)">
<path d="M8.00056 7.55591C8.65651 7.55679 9.29797 7.36309 9.8438 6.9993C10.3896 6.63552 10.8153 6.11801 11.0669 5.51225C11.3185 4.90649 11.3848 4.2397 11.2574 3.59625C11.13 2.95281 10.8145 2.36162 10.351 1.89748C9.88752 1.43335 9.29675 1.11713 8.65348 0.98884C8.0102 0.860547 7.34333 0.925947 6.73723 1.17676C6.13113 1.42758 5.61305 1.85254 5.24854 2.39787C4.88402 2.94321 4.68945 3.58441 4.68945 4.24036C4.68945 5.11893 5.03816 5.96158 5.65898 6.58324C6.27981 7.2049 7.12199 7.55474 8.00056 7.55591ZM8.00056 1.80925C8.48089 1.80837 8.95067 1.95006 9.35042 2.21636C9.75016 2.48267 10.0619 2.86162 10.2461 3.30521C10.4303 3.74881 10.4788 4.2371 10.3853 4.70824C10.2918 5.17938 10.0606 5.61218 9.72092 5.95182C9.38127 6.29146 8.94848 6.52267 8.47734 6.61616C8.00619 6.70966 7.5179 6.66123 7.07431 6.47701C6.63071 6.29279 6.25176 5.98107 5.98546 5.58132C5.71915 5.18158 5.57746 4.7118 5.57834 4.23147C5.57952 3.58942 5.83509 2.974 6.28909 2.52C6.74309 2.066 7.35851 1.81042 8.00056 1.80925Z"/>
<path d="M2.66651 14.1732V11.4532C3.35268 10.733 4.1812 10.1635 5.09939 9.78097C6.01758 9.39839 7.00534 9.21108 7.99985 9.23095C9.36101 9.21261 10.7007 9.571 11.871 10.2665L12.471 9.59539C11.1331 8.75272 9.58091 8.31299 7.99985 8.32872C6.84305 8.29925 5.69399 8.52535 4.6346 8.9909C3.57521 9.45645 2.63157 10.15 1.87096 11.0221C1.81167 11.0984 1.7789 11.192 1.77762 11.2887V14.1732C1.77164 14.4153 1.86182 14.6499 2.02842 14.8256C2.19501 15.0014 2.42445 15.104 2.66651 15.1109H8.17318L7.32873 14.2221L2.66651 14.1732Z" />
<path d="M13.3328 14.1724V14.2213H11.9328L11.1328 15.1102H13.3328C13.5718 15.1033 13.7985 15.0031 13.9646 14.8312C14.1307 14.6593 14.223 14.4293 14.2217 14.1902V11.6436L13.3328 12.6347V14.1724Z" />
<path d="M15.4485 8.27507C15.3606 8.19684 15.2453 8.15665 15.1278 8.16331C15.0103 8.16998 14.9003 8.22295 14.8218 8.31062L9.65736 14.0884L7.34625 11.604C7.30831 11.5596 7.26201 11.5231 7.20999 11.4967C7.15796 11.4702 7.10123 11.4543 7.04304 11.4497C6.98485 11.4452 6.92633 11.4521 6.87083 11.4702C6.81533 11.4883 6.76394 11.5171 6.71958 11.5551C6.67613 11.5946 6.64095 11.6423 6.61607 11.6956C6.59118 11.7488 6.57709 11.8064 6.57461 11.8651C6.57214 11.9237 6.58131 11.9823 6.60162 12.0375C6.62192 12.0926 6.65295 12.1431 6.69291 12.1862L9.66625 15.3862L15.484 8.8884C15.5582 8.80126 15.5959 8.68885 15.5893 8.5746C15.5827 8.46035 15.5322 8.35306 15.4485 8.27507Z" />
</g>
<defs>
<clipPath id="clip0_1111_26171">
<rect width="16" height="16"/>
</clipPath>
</defs>
</svg>
