<svg viewBox="0 0 24 24" fill="none" xmlns="http://www.w3.org/2000/svg">
<g opacity="0.4">
<path fill-rule="evenodd" clip-rule="evenodd" d="M17.0563 10.6604C17.3005 10.6649 17.5382 10.7343 17.7184 10.9145C17.7902 10.9863 17.8429 11.0679 17.8825 11.1548C17.8838 11.1565 17.885 11.1582 17.8862 11.1599L22.4756 21.5215C22.5063 21.5907 22.5153 21.6676 22.5015 21.742C22.4877 21.8165 22.4517 21.885 22.3982 21.9385C22.3447 21.9921 22.2762 22.0283 22.2018 22.0422C22.1274 22.0561 22.0505 22.0472 21.9812 22.0166L11.6482 17.439C11.6443 17.4368 11.6404 17.4346 11.6365 17.4324C11.5414 17.392 11.452 17.3365 11.3743 17.2588C11.1339 17.0184 11.0904 16.676 11.1355 16.3528C11.1806 16.0295 11.3093 15.6858 11.501 15.3142C11.8844 14.571 12.5277 13.7192 13.3533 12.8935C14.1789 12.0679 15.03 11.4254 15.7732 11.042C16.1448 10.8503 16.4886 10.7209 16.8118 10.6758C16.8926 10.6645 16.9749 10.6589 17.0563 10.6604ZM17.0373 11.4089C17.0039 11.409 16.964 11.4117 16.9157 11.4185C16.7226 11.4454 16.4398 11.5421 16.1173 11.7085C15.4724 12.0412 14.6633 12.644 13.8835 13.4238C13.1036 14.2037 12.5001 15.0135 12.1674 15.6584C12.001 15.9809 11.905 16.2629 11.8781 16.4561C11.8511 16.6491 11.8884 16.7125 11.9045 16.7285C11.9204 16.7445 11.9838 16.7826 12.1769 16.7556C12.37 16.7287 12.6528 16.6327 12.9753 16.4663C13.6202 16.1336 14.43 15.5301 15.2099 14.7502C15.9897 13.9704 16.5925 13.1613 16.9252 12.5164C17.0916 12.1939 17.1876 11.9111 17.2145 11.718C17.2341 11.5777 17.2197 11.507 17.2043 11.4719L17.2005 11.4646V11.4638C17.1961 11.4555 17.1915 11.4482 17.1881 11.4448C17.1761 11.4328 17.1374 11.4088 17.0373 11.4089ZM17.7096 12.6138C17.673 12.6946 17.6341 12.7762 17.591 12.8599C17.2076 13.603 16.5658 14.4549 15.7401 15.2805C14.9145 16.1061 14.0619 16.7487 13.3188 17.1321C13.2356 17.175 13.1545 17.2135 13.0741 17.25L15.965 18.5303C16.5784 18.17 17.282 17.6148 17.9323 16.9651C18.3552 16.5417 18.7404 16.0934 19.0587 15.6592L17.7096 12.6138ZM19.4045 16.4407C19.1205 16.7977 18.8032 17.1535 18.4626 17.4946C17.9194 18.0374 17.3456 18.5185 16.7897 18.8957L21.3966 20.937L19.4045 16.4407Z" fill="white"/>
<path fill-rule="evenodd" clip-rule="evenodd" d="M3.89198 9.80406C5.93693 9.62683 7.63932 10.3547 8.88197 11.2403C10.5388 12.4212 11.4403 13.891 11.4403 13.891C11.4662 13.9329 11.4835 13.9796 11.4914 14.0283C11.4992 14.077 11.4973 14.1267 11.4859 14.1747C11.4745 14.2226 11.4537 14.2679 11.4247 14.3078C11.3958 14.3477 11.3593 14.3815 11.3173 14.4073C11.2326 14.4593 11.1307 14.4756 11.034 14.4525C10.9373 14.4295 10.8537 14.3689 10.8016 14.2843C10.8016 14.2843 9.96937 12.9362 8.44691 11.8512C6.92446 10.7661 4.77373 9.95312 2.00526 11.0111C1.91241 11.0466 1.80926 11.0438 1.71847 11.0033C1.62769 10.9628 1.55671 10.8879 1.52113 10.795C1.48562 10.7022 1.48843 10.599 1.52895 10.5082C1.56946 10.4174 1.64437 10.3465 1.7372 10.3109C2.49065 10.023 3.21033 9.86313 3.89198 9.80406Z" fill="white"/>
<path fill-rule="evenodd" clip-rule="evenodd" d="M7.35655 3.02107C7.45551 3.0119 7.55407 3.04239 7.63056 3.10584C7.70705 3.16928 7.75523 3.2605 7.76451 3.35945C7.76451 3.35945 7.91529 4.93636 8.80089 6.58284C9.6865 8.22932 11.256 9.91013 14.2069 10.1856C14.3058 10.1949 14.3971 10.2431 14.4605 10.3196C14.524 10.3961 14.5544 10.4946 14.5453 10.5936C14.536 10.6925 14.4878 10.7837 14.4113 10.8472C14.3348 10.9106 14.2363 10.9411 14.1373 10.932C10.9249 10.6321 9.10404 8.72991 8.14025 6.93806C7.17645 5.14621 7.01818 3.42903 7.01818 3.42903C7.00901 3.33007 7.03949 3.23152 7.10294 3.15503C7.16639 3.07853 7.25761 3.03035 7.35655 3.02107Z" fill="white"/>
<path fill-rule="evenodd" clip-rule="evenodd" d="M15.6719 5.85132C16.2888 5.85132 16.7969 6.35944 16.7969 6.97632C16.7969 7.5932 16.2888 8.10132 15.6719 8.10132C15.055 8.10132 14.5469 7.5932 14.5469 6.97632C14.5469 6.35944 15.055 5.85132 15.6719 5.85132ZM15.6719 6.60132C15.4603 6.60132 15.2969 6.76477 15.2969 6.97632C15.2969 7.18787 15.4603 7.35132 15.6719 7.35132C15.8834 7.35132 16.0469 7.18787 16.0469 6.97632C16.0469 6.76477 15.8834 6.60132 15.6719 6.60132Z" fill="white"/>
<path fill-rule="evenodd" clip-rule="evenodd" d="M3.21387 2.90619C3.95845 2.90619 4.57031 3.51805 4.57031 4.26263C4.57031 5.00722 3.95845 5.61908 3.21387 5.61908C2.46928 5.61908 1.85742 5.00722 1.85742 4.26263C1.85742 3.51805 2.46928 2.90619 3.21387 2.90619ZM3.21387 3.65619C2.87461 3.65619 2.60742 3.92338 2.60742 4.26263C2.60742 4.60189 2.87461 4.86908 3.21387 4.86908C3.55312 4.86908 3.82031 4.60189 3.82031 4.26263C3.82031 3.92338 3.55312 3.65619 3.21387 3.65619Z" fill="white"/>
<path fill-rule="evenodd" clip-rule="evenodd" d="M2.62109 17.1658C3.23797 17.1658 3.74609 17.6739 3.74609 18.2908C3.74609 18.9076 3.23797 19.4158 2.62109 19.4158C2.00422 19.4158 1.49609 18.9076 1.49609 18.2908C1.49609 17.6739 2.00422 17.1658 2.62109 17.1658ZM2.62109 17.9158C2.40954 17.9158 2.24609 18.0792 2.24609 18.2908C2.24609 18.5023 2.40954 18.6658 2.62109 18.6658C2.83264 18.6658 2.99609 18.5023 2.99609 18.2908C2.99609 18.0792 2.83264 17.9158 2.62109 17.9158Z" fill="white"/>
<path fill-rule="evenodd" clip-rule="evenodd" d="M10.7808 2.93939C10.8802 2.93939 10.9756 2.9789 11.0459 3.04923C11.1162 3.11955 11.1558 3.21494 11.1558 3.31439V3.83441H11.6758C11.7752 3.83441 11.8706 3.87392 11.9409 3.94425C12.0113 4.01457 12.0508 4.10996 12.0508 4.20941C12.0508 4.30887 12.0113 4.40425 11.9409 4.47458C11.8706 4.5449 11.7752 4.58441 11.6758 4.58441H11.1558V5.10443C11.1558 5.20389 11.1162 5.29927 11.0459 5.3696C10.9756 5.43992 10.8802 5.47943 10.7808 5.47943C10.6813 5.47943 10.5859 5.43992 10.5156 5.3696C10.4453 5.29927 10.4058 5.20389 10.4058 5.10443V4.58441H9.88574C9.78629 4.58441 9.69091 4.5449 9.62058 4.47458C9.55026 4.40425 9.51074 4.30887 9.51074 4.20941C9.51074 4.10996 9.55026 4.01457 9.62058 3.94425C9.69091 3.87392 9.78629 3.83441 9.88574 3.83441H10.4058V3.31439C10.4058 3.21494 10.4453 3.11955 10.5156 3.04923C10.5859 2.9789 10.6813 2.93939 10.7808 2.93939Z" fill="white"/>
<path fill-rule="evenodd" clip-rule="evenodd" d="M6.21099 6.74603C6.31045 6.74605 6.40582 6.78557 6.47613 6.8559C6.54644 6.92622 6.58594 7.02159 6.58594 7.12103C6.58594 7.22047 6.54644 7.31585 6.47613 7.38617L6.10846 7.75385L6.47613 8.12152C6.54644 8.19184 6.58594 8.28722 6.58594 8.38666C6.58594 8.4861 6.54644 8.58147 6.47613 8.65179C6.40581 8.7221 6.31044 8.7616 6.21099 8.7616C6.11155 8.7616 6.01618 8.7221 5.94586 8.65179L5.57818 8.28412L5.21051 8.65179C5.14018 8.7221 5.04481 8.7616 4.94537 8.7616C4.84593 8.7616 4.75056 8.7221 4.68023 8.65179C4.60992 8.58147 4.57043 8.4861 4.57043 8.38666C4.57043 8.28722 4.60992 8.19184 4.68023 8.12152L5.04791 7.75385L4.68023 7.38617C4.60992 7.31585 4.57043 7.22047 4.57043 7.12103C4.57043 7.02159 4.60992 6.92622 4.68023 6.8559C4.75055 6.78557 4.84592 6.74605 4.94537 6.74603C5.04482 6.74605 5.14019 6.78557 5.21051 6.8559L5.57818 7.22357L5.94586 6.8559C6.01617 6.78557 6.11154 6.74605 6.21099 6.74603Z" fill="white"/>
<path fill-rule="evenodd" clip-rule="evenodd" d="M5.84326 13.5683C5.94272 13.5683 6.0381 13.6078 6.10842 13.6781C6.17875 13.7485 6.21826 13.8438 6.21826 13.9433V14.4633H6.73828C6.83774 14.4633 6.93311 14.5028 7.00344 14.5732C7.07377 14.6435 7.11328 14.7389 7.11328 14.8383C7.11328 14.9378 7.07377 15.0332 7.00344 15.1035C6.93311 15.1738 6.83774 15.2133 6.73828 15.2133H6.21826V15.7333C6.21826 15.8328 6.17875 15.9282 6.10842 15.9985C6.0381 16.0688 5.94272 16.1083 5.84326 16.1083C5.74381 16.1083 5.64842 16.0688 5.57809 15.9985C5.50776 15.9282 5.46826 15.8328 5.46826 15.7333V15.2133H4.94824C4.84879 15.2133 4.7534 15.1738 4.68307 15.1035C4.61275 15.0332 4.57324 14.9378 4.57324 14.8383C4.57324 14.7389 4.61275 14.6435 4.68307 14.5732C4.7534 14.5028 4.84879 14.4633 4.94824 14.4633H5.46826V13.9433C5.46826 13.8438 5.50776 13.7485 5.57809 13.6781C5.64842 13.6078 5.74381 13.5683 5.84326 13.5683Z" fill="white"/>
<path fill-rule="evenodd" clip-rule="evenodd" d="M9.32826 16.9524C9.37714 16.9588 9.42427 16.9748 9.46696 16.9994C9.50966 17.024 9.54708 17.0569 9.57708 17.096C9.60708 17.1351 9.62906 17.1797 9.64179 17.2274C9.65452 17.275 9.65774 17.3246 9.65126 17.3735C9.63814 17.4721 9.58641 17.5614 9.50743 17.6219C9.42845 17.6823 9.3287 17.7089 9.23011 17.6958C9.12542 17.6819 9.0184 17.6819 8.91371 17.6958C8.79273 17.7118 8.67994 17.7465 8.58558 17.7976C8.49216 17.8482 8.41319 17.9176 8.36219 17.9939C8.31215 18.0687 8.28556 18.1583 8.28676 18.2341C8.28788 18.3077 8.31844 18.3829 8.35853 18.4267C8.3861 18.4569 8.43124 18.4894 8.4889 18.5139C8.54753 18.5388 8.62076 18.5571 8.7057 18.5703C8.87609 18.5968 9.09608 18.5951 9.35316 18.6465C9.76991 18.7296 10.1506 18.9483 10.4328 19.2661C10.7149 19.5839 10.8865 19.9879 10.9198 20.4116C10.9531 20.8353 10.8464 21.2607 10.6173 21.6186C10.3883 21.9766 10.0462 22.2521 9.6476 22.3994C9.24896 22.5466 8.80996 22.5598 8.40321 22.4367C7.99646 22.3137 7.63892 22.0596 7.38881 21.716C7.13869 21.3725 7.00672 20.9537 7.01454 20.5288C7.02238 20.1039 7.16942 19.6903 7.43202 19.3562C7.46246 19.3175 7.50022 19.2851 7.54316 19.261C7.5861 19.2369 7.63338 19.2215 7.68228 19.2156C7.73118 19.2098 7.78075 19.2136 7.82817 19.2269C7.87558 19.2402 7.91992 19.2627 7.95863 19.2932C7.99735 19.3236 8.02969 19.3614 8.05381 19.4043C8.07793 19.4473 8.09335 19.4946 8.0992 19.5435C8.10505 19.5924 8.1012 19.6419 8.08789 19.6893C8.07458 19.7368 8.05206 19.7811 8.02162 19.8198C7.86243 20.0223 7.76929 20.2851 7.76454 20.5427C7.75981 20.8003 7.84363 21.0661 7.99525 21.2744C8.14687 21.4827 8.37417 21.6444 8.62074 21.719C8.86732 21.7936 9.14592 21.7848 9.38759 21.6955C9.62924 21.6063 9.84711 21.4313 9.98597 21.2143C10.1248 20.9973 10.1922 20.727 10.172 20.4702C10.1518 20.2134 10.0428 19.9568 9.87172 19.7641C9.70067 19.5715 9.45858 19.433 9.20594 19.3825C9.0473 19.3509 8.83922 19.3501 8.59071 19.3115C8.4662 19.2922 8.33163 19.2619 8.1952 19.2038C8.05781 19.1454 7.92035 19.0598 7.80482 18.9336C7.62783 18.7401 7.54081 18.4938 7.53676 18.2458C7.53286 18.0001 7.61022 17.7696 7.7389 17.5771C7.86662 17.3861 8.03883 17.2402 8.22816 17.1377C8.41655 17.0356 8.61774 16.9785 8.81556 16.9524C8.98581 16.9299 9.15802 16.9299 9.32826 16.9524Z" fill="white"/>
<path fill-rule="evenodd" clip-rule="evenodd" d="M19.1183 1.54175C19.3335 1.48508 19.559 1.48622 19.7738 1.54395C19.9887 1.60167 20.1844 1.71374 20.3422 1.87061C20.3772 1.90534 20.405 1.94664 20.4241 1.99215C20.4431 2.03766 20.453 2.08647 20.4531 2.1358C20.4533 2.18512 20.4437 2.23399 20.4249 2.27961C20.4061 2.32522 20.3785 2.36668 20.3437 2.40161C20.2736 2.47211 20.1783 2.51188 20.0789 2.51215C19.9794 2.51243 19.8839 2.47319 19.8134 2.40308C19.7498 2.33986 19.6656 2.29158 19.579 2.26831C19.4925 2.24505 19.3955 2.24474 19.3088 2.26758C19.2221 2.29042 19.1383 2.33798 19.0744 2.40088C19.0105 2.46378 18.9609 2.54746 18.9367 2.63379C18.8938 2.78699 18.9225 3.01847 18.9382 3.31787C18.9461 3.46837 18.9471 3.63833 18.9075 3.82031C18.8672 4.00465 18.7855 4.19765 18.6306 4.35791C18.5006 4.4924 18.3356 4.58491 18.1531 4.62598C17.9706 4.66705 17.7818 4.65444 17.6067 4.58862C17.4316 4.52281 17.2811 4.40795 17.1709 4.25684C17.0606 4.10573 16.9977 3.92804 16.9885 3.74121C16.9861 3.69201 16.9933 3.64281 17.0099 3.59641C17.0264 3.55001 17.052 3.50733 17.085 3.47081C17.1181 3.43428 17.158 3.40463 17.2025 3.38354C17.247 3.36245 17.2953 3.35034 17.3445 3.3479C17.3937 3.34544 17.4429 3.35269 17.4893 3.36925C17.5357 3.3858 17.5784 3.41134 17.6149 3.44439C17.6514 3.47745 17.6811 3.51738 17.7021 3.5619C17.7232 3.60642 17.7353 3.65466 17.7378 3.70386C17.7397 3.74168 17.755 3.7846 17.7773 3.81519C17.7996 3.84578 17.8356 3.87291 17.8711 3.88623C17.9065 3.89956 17.9513 3.90261 17.9883 3.89429C18.0252 3.88598 18.0645 3.86366 18.0908 3.83643C18.1235 3.80266 18.157 3.73999 18.1743 3.66065C18.1921 3.57896 18.1959 3.47644 18.1897 3.35743C18.1771 3.11782 18.1118 2.79742 18.2146 2.43091C18.2747 2.21666 18.39 2.0223 18.5486 1.86622C18.7071 1.71013 18.9031 1.59842 19.1183 1.54175Z" fill="white"/>
</g>
</svg>
