<svg viewBox="0 0 16 19" fill="none" xmlns="http://www.w3.org/2000/svg">
<path d="M6.1667 0.456253H1.16664C0.523322 0.456253 0 1.05151 0 1.78325V5.19564C0 5.92752 0.523322 6.52278 1.16664 6.52278H6.1667C6.81014 6.52278 7.33346 5.92752 7.33346 5.19564V1.78325C7.33346 1.05151 6.81014 0.456253 6.1667 0.456253Z" fill="#333333"/>
<path d="M6.1667 8.03941H1.16664C0.523322 8.03941 0 8.63467 0 9.36655V17.3288C0 18.0605 0.523322 18.6558 1.16664 18.6558H6.1667C6.81014 18.6558 7.33346 18.0605 7.33346 17.3288V9.36655C7.33346 8.63467 6.81014 8.03941 6.1667 8.03941Z" fill="#333333"/>
<path d="M14.8328 12.5892H9.83278C9.18934 12.5892 8.66602 13.1845 8.66602 13.9164V17.3287C8.66602 18.0605 9.18934 18.6557 9.83278 18.6557H14.8328C15.4762 18.6557 15.9995 18.0605 15.9995 17.3287V13.9164C15.9995 13.1845 15.4762 12.5892 14.8328 12.5892Z" fill="#333333"/>
<path d="M14.8328 0.456253H9.83278C9.18934 0.456253 8.66602 1.05151 8.66602 1.78325V9.74551C8.66602 10.4774 9.18934 11.0726 9.83278 11.0726H14.8328C15.4762 11.0726 15.9995 10.4774 15.9995 9.74551V1.78325C15.9995 1.05151 15.4762 0.456253 14.8328 0.456253V0.456253Z" fill="#333333"/>
</svg>
