<svg xmlns="http://www.w3.org/2000/svg" width="20" height="20" viewBox="0 0 20 20" fill="none">
  <path d="M7.49998 16.6668C7.04165 16.6668 6.64929 16.5036 6.3229 16.1772C5.99651 15.8509 5.83331 15.4585 5.83331 15.0002C5.83331 14.5418 5.99651 14.1495 6.3229 13.8231C6.64929 13.4967 7.04165 13.3335 7.49998 13.3335C7.95831 13.3335 8.35067 13.4967 8.67706 13.8231C9.00345 14.1495 9.16665 14.5418 9.16665 15.0002C9.16665 15.4585 9.00345 15.8509 8.67706 16.1772C8.35067 16.5036 7.95831 16.6668 7.49998 16.6668ZM12.5 16.6668C12.0416 16.6668 11.6493 16.5036 11.3229 16.1772C10.9965 15.8509 10.8333 15.4585 10.8333 15.0002C10.8333 14.5418 10.9965 14.1495 11.3229 13.8231C11.6493 13.4967 12.0416 13.3335 12.5 13.3335C12.9583 13.3335 13.3507 13.4967 13.6771 13.8231C14.0035 14.1495 14.1666 14.5418 14.1666 15.0002C14.1666 15.4585 14.0035 15.8509 13.6771 16.1772C13.3507 16.5036 12.9583 16.6668 12.5 16.6668ZM7.49998 11.6668C7.04165 11.6668 6.64929 11.5036 6.3229 11.1772C5.99651 10.8509 5.83331 10.4585 5.83331 10.0002C5.83331 9.54183 5.99651 9.14947 6.3229 8.82308C6.64929 8.49669 7.04165 8.3335 7.49998 8.3335C7.95831 8.3335 8.35067 8.49669 8.67706 8.82308C9.00345 9.14947 9.16665 9.54183 9.16665 10.0002C9.16665 10.4585 9.00345 10.8509 8.67706 11.1772C8.35067 11.5036 7.95831 11.6668 7.49998 11.6668ZM12.5 11.6668C12.0416 11.6668 11.6493 11.5036 11.3229 11.1772C10.9965 10.8509 10.8333 10.4585 10.8333 10.0002C10.8333 9.54183 10.9965 9.14947 11.3229 8.82308C11.6493 8.49669 12.0416 8.3335 12.5 8.3335C12.9583 8.3335 13.3507 8.49669 13.6771 8.82308C14.0035 9.14947 14.1666 9.54183 14.1666 10.0002C14.1666 10.4585 14.0035 10.8509 13.6771 11.1772C13.3507 11.5036 12.9583 11.6668 12.5 11.6668ZM7.49998 6.66683C7.04165 6.66683 6.64929 6.50363 6.3229 6.17725C5.99651 5.85086 5.83331 5.4585 5.83331 5.00016C5.83331 4.54183 5.99651 4.14947 6.3229 3.82308C6.64929 3.49669 7.04165 3.3335 7.49998 3.3335C7.95831 3.3335 8.35067 3.49669 8.67706 3.82308C9.00345 4.14947 9.16665 4.54183 9.16665 5.00016C9.16665 5.4585 9.00345 5.85086 8.67706 6.17725C8.35067 6.50363 7.95831 6.66683 7.49998 6.66683ZM12.5 6.66683C12.0416 6.66683 11.6493 6.50363 11.3229 6.17725C10.9965 5.85086 10.8333 5.4585 10.8333 5.00016C10.8333 4.54183 10.9965 4.14947 11.3229 3.82308C11.6493 3.49669 12.0416 3.3335 12.5 3.3335C12.9583 3.3335 13.3507 3.49669 13.6771 3.82308C14.0035 4.14947 14.1666 4.54183 14.1666 5.00016C14.1666 5.4585 14.0035 5.85086 13.6771 6.17725C13.3507 6.50363 12.9583 6.66683 12.5 6.66683Z" fill="currentColor"/>
</svg>
