<svg viewBox="0 0 16 16" fill="none" xmlns="http://www.w3.org/2000/svg">
<path d="M5.2 12.8322L6.803 14.486C6.9598 14.6489 7.14628 14.7782 7.35173 14.8664C7.55718 14.9546 7.77747 15 8 15C8.22253 15 8.44282 14.9546 8.64827 14.8664C8.85372 14.7782 9.0402 14.6489 9.197 14.486L10.8 12.8322H12.2C12.9426 12.8322 13.6548 12.5279 14.1799 11.9863C14.705 11.4445 15 10.7098 15 9.94365V4.8886C15 4.12249 14.705 3.38781 14.1799 2.84609C13.6548 2.30438 12.9426 2 12.2 2H3.8C3.05739 2 2.3452 2.30438 1.8201 2.84609C1.29499 3.38781 1 4.12249 1 4.8886V9.94365C1 10.7098 1.29499 11.4445 1.8201 11.9863C2.3452 12.5279 3.05739 12.8322 3.8 12.8322H5.2Z" stroke="#005F6B" stroke-linecap="round" stroke-linejoin="round"/>
<path d="M5.252 6.2H5.9V9H5.252V6.2ZM3.98 9H3.332V6.2H3.98V9ZM5.3 7.852H3.932V7.304H5.3V7.852ZM7.58647 9.032C7.34114 9.032 7.12514 8.984 6.93847 8.888C6.75447 8.792 6.6118 8.66133 6.51047 8.496C6.40914 8.328 6.35847 8.13733 6.35847 7.924C6.35847 7.708 6.4078 7.51733 6.50647 7.352C6.6078 7.184 6.74514 7.05333 6.91847 6.96C7.0918 6.864 7.2878 6.816 7.50647 6.816C7.71714 6.816 7.90647 6.86133 8.07447 6.952C8.24514 7.04 8.3798 7.168 8.47847 7.336C8.57714 7.50133 8.62647 7.7 8.62647 7.932C8.62647 7.956 8.62514 7.984 8.62247 8.016C8.6198 8.04533 8.61714 8.07333 8.61447 8.1H6.86647V7.736H8.28647L8.04647 7.844C8.04647 7.732 8.0238 7.63467 7.97847 7.552C7.93314 7.46933 7.87047 7.40533 7.79047 7.36C7.71047 7.312 7.61714 7.288 7.51047 7.288C7.4038 7.288 7.30914 7.312 7.22647 7.36C7.14647 7.40533 7.0838 7.47067 7.03847 7.556C6.99314 7.63867 6.97047 7.73733 6.97047 7.852V7.948C6.97047 8.06533 6.9958 8.16933 7.04647 8.26C7.0998 8.348 7.17314 8.416 7.26647 8.464C7.36247 8.50933 7.47447 8.532 7.60247 8.532C7.71714 8.532 7.81714 8.51467 7.90247 8.48C7.99047 8.44533 8.07047 8.39333 8.14247 8.324L8.47447 8.684C8.3758 8.796 8.2518 8.88267 8.10247 8.944C7.95314 9.00267 7.78114 9.032 7.58647 9.032ZM9.04191 9V6.032H9.66591V9H9.04191ZM11.517 9.032C11.3357 9.032 11.177 8.992 11.041 8.912C10.905 8.832 10.7984 8.71067 10.721 8.548C10.6464 8.38267 10.609 8.17467 10.609 7.924C10.609 7.67067 10.645 7.46267 10.717 7.3C10.789 7.13733 10.893 7.016 11.029 6.936C11.165 6.856 11.3277 6.816 11.517 6.816C11.7197 6.816 11.901 6.86267 12.061 6.956C12.2237 7.04667 12.3517 7.17467 12.445 7.34C12.541 7.50533 12.589 7.7 12.589 7.924C12.589 8.15067 12.541 8.34667 12.445 8.512C12.3517 8.67733 12.2237 8.80533 12.061 8.896C11.901 8.98667 11.7197 9.032 11.517 9.032ZM10.245 9.776V6.848H10.841V7.288L10.829 7.928L10.869 8.564V9.776H10.245ZM11.409 8.52C11.513 8.52 11.605 8.496 11.685 8.448C11.7677 8.4 11.833 8.332 11.881 8.244C11.9317 8.15333 11.957 8.04667 11.957 7.924C11.957 7.79867 11.9317 7.692 11.881 7.604C11.833 7.516 11.7677 7.448 11.685 7.4C11.605 7.352 11.513 7.328 11.409 7.328C11.305 7.328 11.2117 7.352 11.129 7.4C11.0464 7.448 10.981 7.516 10.933 7.604C10.885 7.692 10.861 7.79867 10.861 7.924C10.861 8.04667 10.885 8.15333 10.933 8.244C10.981 8.332 11.0464 8.4 11.129 8.448C11.2117 8.496 11.305 8.52 11.409 8.52Z" fill="#005F6B"/>
</svg>
